<svg width="11" height="18" viewBox="0 0 11 18" fill="none" xmlns="http://www.w3.org/2000/svg">
<path d="M3.49441 9.0255L6.14972 11.6976C7.38772 12.9444 8.62539 14.1915 9.86274 15.439C10.2491 15.8297 10.357 16.3441 10.1785 16.8604C10.0064 17.3593 9.60285 17.6791 9.13357 17.6122C8.90893 17.5802 8.69634 17.4753 8.51964 17.3092C6.0845 14.8783 3.65606 12.4393 1.23433 9.99226C0.686108 9.43859 0.694934 8.59974 1.24218 8.04665C3.68124 5.59116 6.12177 3.13798 8.56377 0.687098C9.01784 0.232528 9.68032 0.290141 10.052 0.808663C10.4443 1.35369 10.384 2.09229 9.90736 2.57221C7.87072 4.6221 5.8336 6.67141 3.79598 8.72015C3.70183 8.81003 3.6121 8.90509 3.49441 9.0255Z" fill="#121113"/>
</svg>
