<svg width="200" height="32" viewBox="0 0 200 32" fill="none" xmlns="http://www.w3.org/2000/svg">
<g clip-path="url(#clip0_125_1359)">
<path d="M130.047 15.7172C130.047 11.5185 127.372 8.30904 123.153 8.30904C118.933 8.30904 116.359 11.5185 116.359 15.7496C116.359 19.9807 119.034 23.1902 123.153 23.1902C127.272 23.1902 130.047 20.1515 130.047 15.7143M115.09 27.0827L116.77 26.535C117.868 28.8228 119.72 30.4599 123.253 30.4599C128.949 30.4599 129.943 26.8412 129.943 23.2579V22.6101C129.943 22.0978 129.979 21.0407 130.012 20.5284H129.908C128.878 22.9193 126.411 24.7949 123.15 24.7949C118.072 24.7949 114.607 20.9023 114.607 15.782C114.607 10.6616 118.176 6.80444 123.15 6.80444C126.547 6.80444 128.81 8.51221 129.908 10.697H130.012C129.979 9.98148 129.979 9.46915 129.979 9.09226V7.28438H131.624C131.592 7.8291 131.592 8.24132 131.592 8.78604V23.2932C131.592 30.0507 127.783 31.9969 123.221 31.9969C118.658 31.9969 116.119 29.7445 115.09 27.0827Z" fill="#FBF8EE"/>
<path d="M135.767 9.537C135.767 8.47995 135.734 7.82924 135.734 7.28452H137.415V9.02467C137.415 9.67245 137.38 10.3202 137.38 10.8355H137.448C138.17 8.68606 140.054 7.2168 142.525 7.2168C142.765 7.2168 143.072 7.2168 143.383 7.24919L143.315 8.92162C142.936 8.88629 142.697 8.88629 142.457 8.88629C138.785 8.88629 137.483 11.9249 137.483 16.1237V25.2367H135.767V9.53406V9.537Z" fill="#FBF8EE"/>
<path d="M159.1 16.2298C159.1 11.7219 156.801 8.30927 152.239 8.30927C147.676 8.30927 145.273 11.7219 145.273 16.2298C145.273 20.7377 147.573 24.1503 152.239 24.1503C156.905 24.1503 159.1 20.7701 159.1 16.2298ZM143.492 16.2622C143.492 10.8003 146.649 6.80762 152.239 6.80762C157.828 6.80762 160.953 10.8003 160.953 16.2622C160.953 21.7241 157.831 25.649 152.203 25.649C146.575 25.649 143.489 21.6534 143.489 16.2622" fill="#FBF8EE"/>
<path d="M163.855 18.2082V7.28442H165.572V18.0021C165.572 21.9948 167.045 24.1118 170.442 24.1118C173.839 24.1118 176.138 21.4147 176.138 17.3867V7.28442H177.854V22.884C177.854 23.6701 177.887 24.5917 177.887 25.2395H176.17V21.8947H176.102C175.312 23.6701 173.564 25.6841 170.235 25.6841C165.397 25.6841 163.855 22.5424 163.855 18.2082Z" fill="#FBF8EE"/>
<path d="M197.327 16.2619C197.327 11.7216 194.96 8.34143 190.569 8.34143C186.178 8.34143 183.571 11.7216 183.571 16.2619C183.571 20.8022 186.246 24.1471 190.569 24.1471C194.892 24.1471 197.327 20.87 197.327 16.2619ZM182.062 9.23065C182.062 8.30904 182.062 7.86444 182.029 7.28438H183.778V8.44449C183.778 8.95682 183.71 10.4585 183.71 10.9355H183.778C184.84 8.61526 187.311 6.80444 190.604 6.80444C195.818 6.80444 199.111 10.8324 199.111 16.2943C199.111 21.7562 195.682 25.6488 190.569 25.6488C187.412 25.6488 184.976 24.044 183.775 21.5855H183.707C183.707 22.9841 183.775 24.6918 183.775 26.6027V31.6554H182.059V9.23065H182.062Z" fill="#FBF8EE"/>
<path d="M111.285 18.0494C111.285 22.6486 112.326 23.6851 114.17 24.4094V25.2397H108.367C106.837 24.377 106.42 22.8901 106.42 19.4981V16.4565C106.42 12.4462 105.621 10.6118 103.015 10.6118C100.233 10.6118 99.1236 12.3755 99.1236 16.1444V18.0465C99.1236 22.6457 100.165 23.6821 102.009 24.4064V25.2368H96.2061C94.6763 24.3741 94.2591 22.8871 94.2591 19.4951V10.5058C94.2591 9.57243 94.2591 8.01778 94.2236 7.04906H98.881V7.77339C98.881 8.22389 98.881 8.77449 98.8484 9.22499H98.9194C99.9965 7.59967 102.011 6.56323 104.651 6.56323C108.784 6.56323 111.288 8.98355 111.288 14.0656V18.0435L111.285 18.0494Z" fill="#FBF8EE"/>
<path d="M56.388 18.0494C56.388 22.6486 57.4295 23.6851 59.2729 24.4094V25.2397H53.4705C51.9407 24.377 51.5235 22.8901 51.5235 19.4981V16.4565C51.5235 12.4462 50.7246 10.6118 48.1178 10.6118C45.3365 10.6118 44.2269 12.3755 44.2269 16.1444V18.0465C44.2269 22.6457 45.2684 23.6821 47.1118 24.4064V25.2368H41.3094C39.7796 24.3741 39.3624 22.8871 39.3624 19.4951V10.5058C39.3624 9.57243 39.3624 8.01778 39.3269 7.04906H43.9842V7.77339C43.9842 8.22389 43.9842 8.77449 43.9517 9.22499H44.0227C45.0997 7.59967 47.1148 6.56323 49.7541 6.56323C53.8877 6.56323 56.391 8.98355 56.391 14.0656V18.0435L56.388 18.0494Z" fill="#FBF8EE"/>
<path d="M86.7525 18.1877V17.5311C86.7525 17.2897 86.717 17.0453 86.8235 16.8068C85.9536 17.0482 85.4329 17.0836 84.2878 17.325C81.1602 17.9463 79.5949 18.1907 79.5949 20.0574C79.5949 21.5444 80.6749 22.3747 82.6189 22.3747C85.2228 22.3747 86.7555 20.9231 86.7555 18.1907M74.7334 20.1281C74.7334 16.8097 76.784 15.3905 81.82 14.4571L84.8085 13.9036C86.2318 13.6268 86.649 13.6268 86.649 12.6934C86.649 11.1712 85.4684 10.2054 83.3853 10.2054C81.1602 10.2054 80.0506 11.3802 79.9086 13.1439L75.3223 12.8672C75.6004 9.16896 78.5534 6.67798 83.4533 6.67798C88.6314 6.67798 91.3063 8.85685 91.3063 13.7299V24.3799C91.3063 24.7921 91.3418 25.1042 91.3418 25.2426H87.2052C87.1697 24.9658 87.1697 24.6213 87.1697 24.3092V23.6173H87.1342C85.8826 24.8274 84.0422 25.5871 81.3999 25.5871C77.3343 25.5871 74.7305 23.5819 74.7305 20.1252" fill="#FBF8EE"/>
<path d="M58.5599 31.741L58.1072 28.0752C58.628 28.1105 59.0452 28.1105 59.4624 28.1105C61.5484 28.1105 62.729 27.8014 63.5635 25.3104L56.5449 7.052H61.8266L63.8416 13.2765C64.5695 15.5908 65.3358 17.9788 66.0312 20.3637H66.1703C67.0047 17.4959 67.4219 16.0089 68.2533 13.3118L70.2358 7.052H75.3784L68.0107 26.5176C66.3419 30.8047 63.9807 31.8087 60.0187 31.8087C59.566 31.8087 59.0807 31.7734 58.5599 31.741Z" fill="#FBF8EE"/>
<path d="M31.8497 18.1877V17.5311C31.8497 17.2897 31.8142 17.0453 31.9207 16.8068C31.0508 17.0482 30.53 17.0836 29.3849 17.325C26.2573 17.9463 24.6921 18.1907 24.6921 20.0574C24.6921 21.5444 25.7721 22.3747 27.7161 22.3747C30.3199 22.3747 31.8526 20.9231 31.8526 18.1907M19.8306 20.1281C19.8306 16.8097 21.8811 15.3905 26.9172 14.4571L29.9057 13.9036C31.3289 13.6268 31.7461 13.6268 31.7461 12.6934C31.7461 11.1712 30.5655 10.2054 28.4824 10.2054C26.2573 10.2054 25.1477 11.3802 25.0057 13.1439L20.4194 12.8672C20.6975 9.16896 23.6505 6.67798 28.5505 6.67798C33.7286 6.67798 36.4034 8.85685 36.4034 13.7299V24.3799C36.4034 24.7921 36.4389 25.1042 36.4389 25.2426H32.3024C32.2669 24.9658 32.2669 24.6213 32.2669 24.3092V23.6173H32.2343C30.9827 24.8274 29.1423 25.5871 26.5 25.5871C22.4344 25.5871 19.8306 23.5819 19.8306 20.1252" fill="#FBF8EE"/>
<path d="M13.969 16.1826C13.969 12.8289 12.1966 10.5469 9.38271 10.5469C6.56878 10.5469 4.76089 12.8289 4.76089 16.1472C4.76089 19.4656 6.49777 21.7829 9.38271 21.7829C12.2676 21.7829 13.969 19.5009 13.969 16.1826ZM4.69283 22.9253H4.62182C4.65733 23.4435 4.69283 23.9293 4.69283 24.4476V25.2425H0C0.0355069 24.5182 0.0355069 23.5819 0.0355069 22.6515V0H4.86445V5.56496C4.86445 6.77512 4.8319 7.94995 4.8319 9.23077C5.94445 7.74384 7.74939 6.53368 10.5633 6.53368C15.4633 6.53368 18.869 10.6117 18.869 16.1472C18.869 21.6827 15.3597 25.6548 10.4598 25.6548C7.7849 25.6548 5.90895 24.6861 4.69283 22.9223" fill="#FBF8EE"/>
</g>
<defs>
<clipPath id="clip0_125_1359">
<rect width="199.111" height="32" fill="white"/>
</clipPath>
</defs>
</svg>
