<svg width="104" height="72" viewBox="0 0 104 72" fill="none" xmlns="http://www.w3.org/2000/svg">
<path d="M80.4651 62.17L80.3651 62.08C80.0151 62.31 79.8051 62.31 79.0251 62.31H77.9851L78.0851 60H79.0751C79.4951 60 79.5851 60 79.9151 60.05L80.4251 59.44L80.3651 59.3799C79.9651 59.5099 79.7451 59.5399 79.1951 59.5399H78.1151L78.1451 57.42C78.3651 57.42 78.5851 57.42 78.8051 57.42C79.1151 57.42 79.3951 57.42 79.7651 57.45L80.2651 57.08L80.2251 56.97C79.9351 57.03 79.6651 57.09 78.8051 57.09C78.4451 57.09 78.1651 57.0899 77.9051 57.0699C77.6451 57.0699 77.4051 57.0499 77.1451 57.0199C77.2151 57.3599 77.2551 57.5599 77.2851 58.0399C77.3051 58.3999 77.3051 58.7599 77.3051 59.1299C77.3051 59.9999 77.2751 60.78 77.2051 61.55C77.1551 62.09 77.1351 62.3099 77.0551 62.7899C77.4251 62.7399 77.7051 62.69 78.5051 62.69C78.8351 62.69 79.1951 62.6899 79.5051 62.7099C79.6851 62.7299 79.7751 62.75 79.8951 62.78L80.4851 62.17H80.4651ZM76.1151 62.17L76.0151 62.08C75.6651 62.31 75.4551 62.31 74.6751 62.31H73.6351L73.7351 60H74.7251C75.1451 60 75.2351 60 75.5551 60.05L76.0651 59.44L76.0051 59.3799C75.6051 59.5099 75.3851 59.5399 74.8351 59.5399H73.7551L73.7851 57.42C74.0051 57.42 74.2251 57.42 74.4451 57.42C74.7551 57.42 75.0351 57.42 75.4051 57.45L75.9051 57.08L75.8651 56.97C75.5751 57.03 75.3051 57.09 74.4451 57.09C74.0851 57.09 73.8051 57.0899 73.5451 57.0699C73.2851 57.0699 73.0451 57.0499 72.7851 57.0199C72.8551 57.3599 72.8951 57.5599 72.9251 58.0399C72.9451 58.3999 72.9451 58.7599 72.9451 59.1299C72.9451 59.9999 72.9151 60.78 72.8451 61.55C72.7951 62.09 72.7751 62.3099 72.6951 62.7899C73.0651 62.7399 73.3451 62.69 74.1451 62.69C74.4751 62.69 74.8351 62.6899 75.1451 62.7099C75.3251 62.7299 75.4051 62.75 75.5351 62.78L76.1251 62.17H76.1151ZM67.2951 57.28H67.7551C67.7751 57.72 67.7851 58.05 67.7851 58.55C67.7851 59.19 67.7651 60.08 67.7351 60.78C67.7151 61.66 67.6951 61.92 67.6051 62.75L68.5151 62.69C68.5351 62.1 68.5351 61.51 68.5451 60.92C68.5451 60.21 68.5451 59.4999 68.5651 58.7899C68.5851 57.9899 68.6251 57.7099 68.6751 57.2699C69.0251 57.2699 69.5051 57.27 69.9051 57.67C70.2151 57.99 70.3351 58.4399 70.3351 58.8699C70.3351 59.0999 70.1051 59.4399 69.9051 59.6499C69.5151 60.0599 69.0551 60.1599 68.6551 60.2399C69.0451 60.6699 69.3251 60.96 70.2451 61.81C70.6651 62.19 71.0851 62.5499 71.5251 62.8999L72.2651 62.39C71.3751 61.8 70.9251 61.3899 69.6151 60.1499C69.9351 59.9999 70.1551 59.8899 70.5151 59.5199C71.1051 58.8999 71.2151 58.4399 71.2151 58.1499C71.2151 57.9299 71.1551 57.7399 70.9551 57.5399C70.4051 56.9799 69.4651 56.9799 69.1751 56.9799C68.8851 56.9799 68.5851 56.9999 68.2951 57.0099C67.9451 57.0299 67.6151 57.0499 67.2751 57.0699V57.2899L67.2951 57.28ZM62.1151 57.28C62.4151 57.34 62.6151 57.39 63.0751 57.39C63.5351 57.39 63.7451 57.3899 64.2151 57.4099C64.2151 58.0099 64.2351 58.61 64.2351 59.2C64.2351 59.49 64.2351 60.78 64.2351 61.05C64.2351 61.96 64.2351 62.06 64.1951 62.72C64.5851 62.72 64.7051 62.72 65.0951 62.75C65.0751 62.2 65.0651 61.87 65.0651 61.47C65.0651 61.18 65.0851 59.8999 65.0851 59.6299C65.0851 58.5099 65.0851 58.38 65.1051 57.45C66.0451 57.47 66.2351 57.45 66.8251 57.39L67.1351 56.92L67.1151 56.8999C66.6051 57.0399 65.7751 57.06 64.6551 57.06C64.1951 57.06 63.6951 57.0599 63.1851 57.0199C62.8251 56.9999 62.6951 56.9699 62.4051 56.9099L62.1451 57.2899L62.1151 57.28ZM54.2451 62.6599C54.2451 61.8199 54.2751 60.94 54.3151 60.08C54.3351 59.47 54.3451 59.1999 54.3451 58.8199C54.3451 58.5999 54.3451 58.3599 54.3451 58.1299C54.5251 58.3899 54.5251 58.4 55.2651 59.14C56.0451 59.94 56.8351 60.71 57.6151 61.5C58.4551 62.32 58.4551 62.33 58.8951 62.8C59.1651 62.62 59.2751 62.5399 59.5551 62.3699C59.4951 62.2699 59.4551 62.1499 59.4451 62.0199C59.3851 61.6099 59.3851 60.5999 59.3851 60.2899C59.3851 59.7499 59.4051 59.2099 59.4151 58.6799C59.4351 57.9199 59.4451 57.7999 59.4551 56.9299C59.1551 57.0199 59.0651 57.04 58.7251 57.11C58.7651 57.87 58.7751 58.1399 58.7751 59.5699V60.3199C58.7751 60.9099 58.7751 61.07 58.8351 61.55C58.3351 61.03 58.2651 60.96 57.6251 60.33C57.1651 59.9 56.0451 58.78 55.7351 58.47C54.9451 57.67 54.6751 57.28 54.4151 56.92C54.0151 56.99 53.9351 56.9999 53.6151 57.0199C53.6751 57.5799 53.7051 58.22 53.7051 58.84C53.7051 59.57 53.5951 62.1799 53.5751 62.4799C53.5751 62.61 53.5551 62.7399 53.5451 62.8699L54.2551 62.6599H54.2451ZM49.8151 57.86C50.0751 58.47 50.1651 58.7099 50.5951 59.6299C50.3851 59.6999 50.2451 59.7399 49.7451 59.7399C49.5151 59.7399 49.2151 59.74 48.9851 59.72C48.8351 59.72 48.7651 59.6999 48.7651 59.6199C48.7651 59.5799 48.8451 59.4299 48.8751 59.3699C49.1651 58.8499 49.4651 58.33 49.8151 57.84M46.9251 62.72C47.1251 62.32 47.1751 62.2099 47.7551 61.2299C47.8851 61.01 48.0151 60.78 48.1551 60.55C48.4751 60 48.4951 59.9999 48.8051 59.9899H49.8651C50.0951 59.9899 50.2351 59.99 50.3551 59.97C50.4751 59.95 50.5751 59.9199 50.7051 59.8799C50.9951 60.4699 51.4851 61.4099 51.7851 62.0199C52.0351 62.5299 52.0451 62.56 52.0951 62.78C52.4851 62.65 52.5751 62.63 52.9551 62.58C52.7051 62.02 52.6051 61.83 51.7551 60.14C50.8151 58.28 50.3651 57.24 50.3451 57.19C50.3051 57.09 50.2951 57.05 50.2851 56.97C49.9951 57.01 49.8851 57.02 49.5851 57.03C49.2051 57.96 48.6651 58.8099 48.1151 59.6499C47.8851 60.0099 47.6551 60.36 47.4151 60.72C47.2251 60.99 47.0251 61.27 46.8451 61.55C46.4951 62.07 46.3551 62.2999 46.1251 62.7099L46.9151 62.7399L46.9251 62.72ZM44.8651 60.1299C45.3751 59.6399 45.8251 59.21 46.7651 58.03C47.1351 57.56 47.3151 57.29 47.5451 56.95L47.5251 56.9099C47.2151 56.9399 47.1351 56.9399 46.8451 56.9599C46.7351 57.2199 46.6651 57.39 46.3051 57.89C46.0051 58.3 45.7351 58.64 45.3451 59.08C45.0651 59.38 44.9551 59.4699 44.6851 59.6799C44.2951 59.2799 44.1451 59.13 43.2951 58.08C42.8451 57.53 42.7051 57.33 42.2651 56.7C41.8751 56.88 41.7651 56.92 41.3451 57.05C41.5951 57.43 41.6151 57.4499 42.0251 57.9299C42.1951 58.1299 42.9051 59.0099 43.0551 59.1799C43.4551 59.6499 43.6551 59.8599 44.0251 60.2399V61.0399C44.0251 61.3399 44.0051 61.63 44.0051 61.92V62.7699C44.3951 62.7499 44.4851 62.74 44.8951 62.72C44.8651 62.25 44.8651 62.0999 44.8551 61.6199V60.1299H44.8651ZM35.6751 62.64C35.6751 61.8 35.7051 60.92 35.7451 60.06C35.7651 59.45 35.7751 59.18 35.7751 58.8C35.7751 58.58 35.7751 58.34 35.7751 58.11C35.9551 58.37 35.9551 58.3799 36.6951 59.1199C37.4751 59.9199 38.2651 60.6899 39.0451 61.4799C39.8851 62.3 39.8851 62.31 40.3251 62.78C40.5951 62.6 40.7051 62.5199 40.9851 62.3499C40.9251 62.2499 40.8851 62.13 40.8751 62C40.8151 61.59 40.8151 60.5799 40.8151 60.2699C40.8151 59.7299 40.8351 59.1899 40.8451 58.6599C40.8651 57.8999 40.8751 57.7799 40.8851 56.9099C40.5851 56.9999 40.4951 57.02 40.1551 57.09C40.1951 57.85 40.2051 58.12 40.2051 59.55V60.3C40.2051 60.89 40.2051 61.05 40.2651 61.53C39.7651 61.01 39.6951 60.94 39.0551 60.31C38.5951 59.88 37.4751 58.76 37.1651 58.45C36.3751 57.65 36.1051 57.2599 35.8451 56.8999C35.4451 56.9699 35.3651 56.98 35.0451 57C35.1051 57.56 35.1351 58.1999 35.1351 58.8199C35.1351 59.5499 35.0251 62.1599 35.0051 62.4599C35.0051 62.5899 34.9851 62.7199 34.9751 62.8499L35.6851 62.64H35.6751ZM31.2451 57.84C31.5051 58.45 31.5951 58.69 32.0251 59.61C31.8151 59.68 31.6751 59.72 31.1751 59.72C30.9451 59.72 30.6451 59.72 30.4151 59.7C30.2651 59.7 30.1951 59.6799 30.1951 59.5999C30.1951 59.5599 30.2751 59.4099 30.3051 59.3499C30.5951 58.8299 30.8951 58.3099 31.2451 57.8199M28.3551 62.7C28.5551 62.3 28.6051 62.1899 29.1951 61.2099C29.3251 60.9899 29.4551 60.76 29.5951 60.53C29.9151 59.98 29.9351 59.98 30.2451 59.97H31.3051C31.5351 59.97 31.6751 59.97 31.7951 59.95C31.9151 59.93 32.0151 59.9 32.1451 59.86C32.4351 60.45 32.9251 61.39 33.2251 62C33.4751 62.51 33.4851 62.5399 33.5351 62.7599C33.9251 62.6299 34.0151 62.61 34.3951 62.56C34.1451 62 34.0451 61.8099 33.1951 60.1199C32.2551 58.2599 31.8051 57.22 31.7851 57.17C31.7451 57.07 31.7351 57.03 31.7251 56.95C31.4351 56.99 31.3251 56.9999 31.0251 57.0099C30.6451 57.9399 30.1051 58.7899 29.5551 59.6299C29.3251 59.9899 29.0951 60.34 28.8551 60.7C28.6651 60.97 28.4651 61.25 28.2851 61.53C27.9351 62.05 27.7951 62.28 27.5651 62.69L28.3551 62.72V62.7ZM24.8951 57.2699C25.2351 57.2699 25.6651 57.2499 26.0051 57.5999C26.1851 57.7799 26.3651 58.14 26.3651 58.44C26.3651 59.11 25.5651 59.5799 25.2751 59.7299C25.2151 59.7599 25.1051 59.8199 25.1051 59.9099C25.1051 59.9999 25.1851 60.03 25.2351 60.05C25.3251 60.08 25.4151 60.11 25.4951 60.14C26.2251 60.42 26.4851 61.0099 26.4851 61.3499C26.4851 61.6499 26.3251 61.8999 26.0151 62.0699C25.6351 62.2899 25.1851 62.33 24.8351 62.36C24.8551 59.52 24.8651 58.87 24.8951 57.28M23.5451 57.2699H24.0551L24.0251 62.44H23.5151V62.7C24.7751 62.68 25.7351 62.6799 26.5851 62.1599C27.0251 61.8999 27.3051 61.5699 27.3051 61.1599C27.3051 60.7499 27.0051 60.26 26.5151 59.92C26.2951 59.78 26.0851 59.6899 25.8951 59.5999C26.4651 59.3299 27.1751 58.9299 27.1751 58.2099C27.1751 57.5999 26.6951 57.2599 26.4751 57.1499C26.2151 57.0299 25.9551 56.9899 25.2351 56.9899C24.5151 56.9899 24.1251 57.01 23.5151 57.05L23.5351 57.28L23.5451 57.2699Z" fill="#FBF8EE"/>
<path d="M56.6248 17.3801C55.1848 19.1301 55.2948 23.0301 55.2948 23.0301C55.2948 23.0301 59.1448 22.1101 60.5548 20.2801C61.8648 18.5901 62.2548 17.1001 61.9548 14.9801C59.6748 14.9001 58.0748 15.6201 56.6248 17.3801ZM55.8348 24.8901C54.4348 26.5101 54.3248 29.0401 54.5248 30.2201C54.9748 30.2601 58.5448 29.1301 60.1248 27.2201C61.6348 25.3901 61.5248 24.6801 61.5248 22.9201C59.2148 22.4801 57.3748 23.1201 55.8348 24.8901ZM62.2648 25.4101C61.2648 26.4801 60.9248 28.9701 60.9248 28.9201C60.9748 28.9201 63.5048 28.7501 64.6448 27.7501C65.8348 26.6901 66.3148 25.5901 66.2548 24.0001C64.6148 23.8101 63.8948 23.6701 62.2648 25.4201M37.6948 31.5501C37.6948 31.5501 39.1348 32.9801 40.9548 32.4701C43.5848 31.7301 43.7448 29.6401 43.7448 29.6401C43.7448 29.6401 42.2248 28.5601 40.5848 28.8301C38.9448 29.1001 37.6948 31.5501 37.6948 31.5501ZM43.4448 24.6901C43.4448 24.6901 42.6248 22.2501 41.3748 21.3901C40.2548 20.6201 39.3448 20.3901 37.9948 20.5401C37.9948 21.8501 38.3748 22.7201 39.3148 23.6301C40.5148 24.7901 43.4548 24.7001 43.4548 24.7001M43.5948 19.6001C43.0948 21.3401 42.9048 22.4301 44.3548 24.1901C45.8048 25.9501 48.6248 26.5301 48.6248 26.5301C48.6248 26.5301 48.8848 22.5501 47.4848 21.0501C46.0848 19.5501 45.2148 19.5001 43.6048 19.6001M41.0248 17.5401C40.3048 16.7501 39.6748 16.4101 38.6148 16.2401C38.4448 17.4401 38.6848 18.3001 39.4548 19.2401C40.1948 20.1401 42.0948 20.6301 42.0948 20.6301C42.0948 20.6301 41.8848 18.4901 41.0248 17.5501M44.3948 14.2901C44.3948 14.2901 45.0148 12.9301 44.7848 12.0901C44.5348 11.1401 43.9948 10.5701 43.0648 10.2601C42.5248 11.0701 42.4448 11.8301 42.7948 12.7401C43.1148 13.5501 44.3948 14.2901 44.3948 14.2901ZM45.0548 18.7501C45.0548 18.7501 44.7348 16.1501 43.7148 14.7701C42.6948 13.4001 41.7548 12.9001 40.1548 12.5501C39.7248 14.1401 39.7648 15.2101 40.9148 16.7101C42.3848 18.6301 45.0448 18.7501 45.0448 18.7501M46.1348 11.9401C45.0848 13.6501 44.9648 15.2101 45.7248 17.0701C46.4348 18.8201 49.2848 20.3601 49.2848 20.3601C49.2848 20.3601 49.6848 17.3101 49.0148 15.5601C48.3648 13.8801 47.6348 12.9601 46.1448 11.9501M52.3048 12.3201C52.3048 12.3201 53.2648 11.2701 53.1648 10.4901C53.0748 9.8401 52.2048 9.1001 52.2048 9.1001C52.2048 9.1001 51.2648 9.9001 51.2348 10.6001C51.1948 11.3901 52.3148 12.3201 52.3148 12.3201M58.9748 36.8001C58.9748 35.5901 59.0448 33.8901 59.1048 33.2501C59.6948 33.0801 60.3448 32.9301 61.0148 32.7801C60.8448 33.4301 60.3848 35.3801 60.1448 36.5801C59.6648 39.0201 59.8248 40.9801 59.3948 43.3401C59.0248 41.0901 58.9448 39.0701 58.9648 36.8001M54.2348 17.1501C55.0048 12.8501 56.9148 9.53011 56.9148 9.53011L54.5548 9.2101C54.5548 9.2101 53.5148 11.2601 52.5148 14.0401C52.1848 13.4901 51.4748 12.8201 50.8348 12.0201C50.0448 11.0301 49.9548 10.5901 48.8548 9.4201L45.6348 9.2701C45.6348 9.2701 48.5848 12.9601 50.1448 15.5301C50.5748 16.2401 50.8948 16.6201 51.2148 17.3801C50.9848 18.5901 50.8048 19.7601 50.6648 20.5001C50.1048 23.4101 49.6848 25.5201 49.3648 27.7601C48.1348 27.2701 46.9048 27.0101 45.3148 26.5901C42.5748 25.8601 41.0148 25.5001 38.2248 24.9801L38.1148 27.2401C38.6548 27.3401 40.2648 27.3501 41.9848 27.8801C42.9848 28.1901 43.5348 28.4401 44.4548 28.9601C43.2148 33.1601 42.6448 36.1401 41.9848 39.9101C41.4048 43.2201 41.1548 47.0701 41.1548 47.0701L44.2448 48.3901C44.2448 48.3901 44.4948 43.2001 44.8848 39.9101C45.1848 37.4301 45.1348 35.9701 45.8448 33.5701C46.2948 32.0701 46.6548 31.3401 47.3148 29.8301C47.3148 29.8301 48.6248 30.4601 49.1748 30.7801C49.0048 34.0101 48.6748 37.3001 48.5248 41.7401C48.4348 44.4201 48.6348 48.7801 48.6348 48.7801C48.6348 48.7801 50.3848 49.1901 51.6348 49.2301C52.5248 49.2601 54.7648 49.0401 54.7648 49.0401C54.7648 49.0401 53.4148 42.0301 53.2548 35.4001C53.7148 35.1801 54.3448 34.8101 55.0848 34.5401C55.6948 34.3201 56.0548 34.3701 56.6948 34.1101C56.6648 34.9301 56.8348 38.9201 56.8548 41.2701C56.8748 43.9001 57.8648 48.9601 57.8648 48.9601L61.7348 47.6301C61.7348 47.6301 61.6248 45.6701 61.6248 44.4101C61.6248 41.9301 61.6248 40.5101 62.0548 38.0701C62.4548 35.7601 63.3548 33.1001 63.6648 32.2701C64.7248 32.1001 65.5948 31.8401 65.5948 31.8401L65.6448 29.6701C63.1148 29.8401 61.7548 29.9801 59.3148 30.5001C56.7948 31.0301 55.2048 31.2301 53.1348 32.0601C52.9448 28.4601 53.3848 21.8001 54.2148 17.1301M61.2648 11.0801C61.2648 11.0801 59.0248 10.9501 58.0048 11.7901C56.9848 12.6301 56.3648 15.2001 56.3648 15.2001C56.3648 15.2001 58.8948 14.7801 59.8648 14.1701C60.8348 13.5601 61.2648 11.0801 61.2648 11.0801ZM64.5848 12.3401C64.3148 12.2601 63.4248 12.0101 62.7448 12.2501C61.9648 12.5301 61.2948 13.7901 61.2748 13.7901C61.3048 13.7701 62.5348 14.1301 63.2348 13.8301C63.9548 13.5201 64.4948 12.6101 64.5848 12.3301M65.2448 21.6901C66.0048 20.5701 66.2148 19.6401 66.0248 18.3001C64.5048 18.0901 63.2648 18.7001 62.4848 20.0201C61.7748 21.2401 62.4848 23.6201 62.5048 23.6401C62.5048 23.6401 64.5048 22.7801 65.2448 21.6901Z" fill="#FBF8EE"/>
</svg>
