<svg width="104" height="72" viewBox="0 0 104 72" fill="none" xmlns="http://www.w3.org/2000/svg">
<path d="M32.1351 61.67L32.0051 61.45C32.0051 61.45 31.5251 60.8501 30.4551 60.9301L31.1851 59.01L32.1351 61.67ZM32.1551 63.85H34.6251V63.57C34.2451 63.57 33.9751 63.23 33.8051 62.76C33.4751 61.91 32.4051 59 31.8751 57.53H31.2951C30.8951 58.57 30.4051 59.88 29.9751 60.98C29.0251 61.14 28.6151 61.29 28.2151 61.45C27.8551 61.6 27.7251 61.4501 27.6751 61.3701C27.6251 61.2901 27.5051 61.1301 27.7351 60.9901C27.7151 60.9901 27.0351 60.97 27.0851 61.69C27.1251 62.27 27.6951 62.28 27.9351 62.26C28.2151 62.23 29.0051 62.04 29.6751 61.73C29.4351 62.33 29.2451 62.8001 29.1351 63.0201C28.9451 63.41 28.6251 63.56 28.3651 63.56V63.84H30.0951V63.56C29.6851 63.56 29.5651 63.29 29.6851 62.91L30.2351 61.4601C30.5451 61.3301 30.7651 61.27 31.1551 61.28C31.6751 61.29 31.8151 61.47 32.2051 61.89L32.5551 62.88C32.6951 63.27 32.6151 63.54 32.1351 63.54V63.82L32.1551 63.85ZM42.2251 57.92V57.6501H39.9951V57.92C40.6851 57.95 40.9151 58.07 40.9451 58.36C40.9651 58.53 40.9951 58.72 40.9951 58.94V62.19H40.9751C39.8051 60.75 38.4351 59.05 37.3451 57.64H35.2851V57.91C35.8151 57.91 36.1651 58.2101 36.4051 58.6201V62.53C36.4051 62.75 36.3851 62.95 36.3651 63.11C36.3251 63.4 36.0951 63.53 35.6151 63.55V63.83H37.8551V63.55C37.1751 63.52 36.9351 63.4 36.8851 63.11C36.8551 62.94 36.8451 62.75 36.8451 62.53V58.9901H36.8651C38.1851 60.5801 39.6851 62.47 40.7451 63.83H41.4351V58.9301C41.4351 58.7101 41.4551 58.51 41.4751 58.35C41.5151 58.06 41.7551 57.93 42.2251 57.91M48.6551 61.3701C48.6851 61.2101 48.9951 61.17 49.3851 61.13V60.85H46.4551V61.13C47.0751 61.16 47.3851 61.2101 47.4251 61.3701C47.4651 61.5401 47.4651 61.6701 47.4651 61.9001V62.47C47.4651 63.36 47.1751 63.6501 46.3251 63.6501C45.0551 63.6501 44.3051 62.25 44.3051 60.63C44.3051 59.08 44.9551 57.82 46.4751 57.82C47.6751 57.82 48.1351 58.64 48.2851 59.32H48.5251V58.1801C48.5251 58.0401 48.4251 57.91 48.1751 57.83C47.7451 57.69 47.3351 57.53 46.5151 57.53C43.9251 57.53 42.9351 59.34 42.9351 60.7C42.9351 62.96 44.4351 63.94 46.3851 63.94C47.2551 63.94 48.1051 63.73 48.6251 63.53V61.9001C48.6251 61.6701 48.6251 61.5401 48.6651 61.3701M51.9151 58.75C51.9151 58.1 52.3751 57.85 52.7751 57.85C53.4751 57.85 53.8051 58.45 53.9651 59.01H54.2051V57.8C54.2051 57.76 54.1751 57.7001 54.1151 57.6801C53.6751 57.5601 53.2351 57.54 52.6651 57.54C51.4451 57.54 50.6051 58.16 50.6051 59.04C50.6051 59.82 51.1551 60.31 51.8151 60.73C53.0551 61.54 53.3151 61.93 53.3151 62.5201C53.3151 63.1701 52.8051 63.64 52.2251 63.64C51.4751 63.64 50.9651 63.01 50.8151 62.2H50.5751V63.55C50.5751 63.62 50.6051 63.66 50.6351 63.67C51.0951 63.85 51.5851 63.95 52.3151 63.95C53.5851 63.95 54.6651 63.37 54.6651 62.28C54.6651 61.61 54.3851 61.1101 53.4751 60.4301C52.5051 59.6901 51.9151 59.3901 51.9151 58.7701M59.1851 61.48H57.3351L58.2951 58.89H58.3151L59.1951 61.48H59.1851ZM59.2751 63.85H61.7451V63.57C61.3651 63.57 61.0951 63.23 60.9251 62.76C60.5951 61.91 59.5251 59 58.9951 57.53H58.4151C57.6751 59.48 56.5951 62.3601 56.2751 63.0201C56.0851 63.41 55.7651 63.56 55.5051 63.56V63.84H57.2351V63.56C56.8251 63.56 56.7051 63.29 56.8251 62.91L57.1751 61.86H59.3351L59.6951 62.9001C59.8351 63.2901 59.7551 63.56 59.2651 63.56V63.84L59.2751 63.85ZM69.1951 57.92V57.6501H66.9651V57.92C67.6551 57.95 67.8852 58.07 67.9151 58.36C67.9352 58.53 67.9651 58.72 67.9651 58.94V62.19H67.9451C66.7752 60.75 65.4051 59.05 64.3151 57.64H62.2551V57.91C62.7851 57.91 63.1351 58.2101 63.3751 58.6201V62.53C63.3751 62.75 63.3551 62.95 63.3351 63.11C63.2951 63.4 63.0651 63.53 62.5851 63.55V63.83H64.8251V63.55C64.1451 63.52 63.9051 63.4 63.8551 63.11C63.8251 62.94 63.8151 62.75 63.8151 62.53V58.9901H63.8351C65.1551 60.5801 66.6551 62.47 67.7151 63.83H68.4051V58.9301C68.4051 58.7101 68.4251 58.51 68.4451 58.35C68.4851 58.06 68.7251 57.93 69.1951 57.91M73.5551 60.91C72.4951 60.83 72.0051 61.4301 72.0051 61.4301L71.8751 61.6501L72.8251 58.9901L73.5551 60.91ZM76.9151 61.69C76.9651 60.97 76.2851 61.0001 76.2651 60.9901C76.4951 61.1301 76.3751 61.2801 76.3251 61.3701C76.2751 61.4501 76.1451 61.6 75.7851 61.45C75.3851 61.29 74.9751 61.14 74.0251 60.98C73.6051 59.89 73.1051 58.58 72.7051 57.53H72.1251C71.5951 58.99 70.5252 61.91 70.1951 62.76C70.0151 63.23 69.7551 63.57 69.3751 63.57V63.85H71.8451V63.57C71.3551 63.57 71.2751 63.3 71.4251 62.91L71.7751 61.92C72.1651 61.49 72.3051 61.32 72.8251 61.31C73.2151 61.3 73.4351 61.3501 73.7451 61.4901L74.2951 62.94C74.4151 63.31 74.2951 63.59 73.8851 63.59V63.8701H75.6151V63.59C75.3551 63.59 75.0351 63.44 74.8451 63.05C74.7351 62.83 74.5452 62.36 74.3051 61.76C74.9751 62.08 75.7751 62.27 76.0451 62.29C76.2851 62.31 76.8551 62.29 76.8951 61.72" fill="#FBF8EE"/>
<path d="M54.7752 8.06003C55.0052 9.23003 55.4052 11.36 55.4052 11.53V15.29L54.7352 21.47V22.7401C54.7352 22.9101 54.5352 24 54.5352 24.17V28.78C54.5352 28.78 54.4752 28.83 54.6352 28.83C56.8652 28.83 69.2752 23.9901 70.6952 23.9901C70.8252 23.9901 72.1852 24.7201 73.5452 24.6801C71.2252 26.5201 67.9452 26.74 65.3852 27.23C61.9952 27.89 58.5952 28.9601 55.1952 29.6801C55.8652 30.8601 56.7652 32.19 57.5852 33.5C58.0852 34.3 65.1452 44.99 65.0952 47.08V49.19C62.0052 46.5 60.5052 42.58 59.0452 39.33C57.6452 36.2 55.9352 33.1901 54.2652 30.0201C54.2652 30.0201 54.1952 30.0201 54.1552 29.9601C51.5752 34.2801 47.7852 39.7101 45.8252 44.4601C45.1952 45.9901 42.9352 47.14 41.7652 47.84C42.3052 43.57 46.5752 39.31 49.3952 35.29C50.6052 33.58 51.8352 31.73 52.9752 30C52.7652 29.6 51.8752 29.64 51.4552 29.61C50.3752 29.53 49.2352 29.37 48.1552 29.16L37.9352 28.29C36.4252 28.09 34.3552 28.18 33.0852 27.39C31.7952 26.59 30.9552 25.0801 29.5752 24.1501C37.5452 25.4401 45.4752 28.1501 53.3852 28.9001C53.5052 28.7701 53.4952 28.73 53.4952 28.56L53.0952 23.08V16.2101C53.0952 16.0401 52.7552 12.6601 52.7552 12.4901C52.7552 10.0601 53.4152 10.96 54.7452 8.05005" fill="#FBF8EE"/>
<path d="M62.9651 37.2399L62.8051 37.3999C62.9451 37.6899 63.2351 37.8599 63.2551 38.1499C63.4351 40.4699 64.9751 43.0199 67.3551 43.0199H67.9051C67.9051 42.9199 67.9551 42.8899 67.9551 42.8899C67.9951 42.9499 68.0151 43.0299 68.1851 43.0299C68.3551 43.0299 68.2651 42.8999 68.4251 42.8999H69.4151C69.5851 42.8999 69.7351 43.2399 69.9051 43.2299H70.2651C69.1751 40.2999 68.7051 37.3199 65.4351 37.3199C65.2651 37.3199 64.7251 37.3899 63.6551 37.3899C63.4451 37.3899 63.2551 37.3199 62.9751 37.2599M50.1351 42.1099C48.5751 43.7699 47.4951 44.7499 47.4951 46.5099C47.4951 47.0499 48.1651 48.1899 48.1851 48.7599C50.0851 47.0299 51.1251 45.9899 51.1251 44.1599C51.1251 43.5899 50.3851 42.8799 50.3751 42.1199H50.1351V42.1099ZM34.7951 39.3999C35.1651 39.3499 35.4051 39.1499 35.5751 39.1499H36.4351C37.0151 39.1499 38.3751 40.2899 39.9351 40.2899C43.1451 40.2899 48.0351 37.4099 48.3851 33.6699C48.4051 33.3599 48.8351 33.0799 49.0351 32.7799C48.6651 32.7599 48.5351 32.8299 48.3651 32.8299C48.3351 32.8299 46.0251 30.9499 43.8651 30.9499C39.0951 30.9499 37.5051 36.5899 34.7951 39.3999ZM40.1551 29.9499C39.1851 29.9499 38.2551 29.2699 37.2951 29.2699H36.3751C35.1251 29.2699 34.4751 30.6499 33.5151 31.3299C33.6151 31.3499 33.6451 31.3899 33.6451 31.3899C33.5851 31.4299 33.5151 31.4599 33.5151 31.4599C34.4951 31.6399 35.9051 32.2299 37.0051 32.2299C37.3551 32.2299 38.8951 31.6599 39.1251 31.4099C39.4551 31.0699 39.5551 30.1999 40.2251 30.2699C40.2351 30.1799 40.1651 30.0399 40.1551 29.9499ZM51.4551 13.9799C51.3951 12.0299 49.0051 11.2699 47.8751 9.91992H47.5651C47.6851 10.8199 46.8151 12.4799 46.8151 13.4299V14.6599C46.8151 15.8899 48.8851 17.5699 49.7951 17.7899C50.1351 17.8699 50.3051 18.4499 50.4751 18.4499C50.6451 18.4499 50.6351 18.3699 50.6351 18.3699C50.6051 17.2599 51.2651 16.0499 51.4451 14.9299C51.4451 14.8599 51.3751 14.7999 51.4451 13.9899M51.1051 25.9899C51.1051 25.8399 51.4451 24.9299 51.4451 24.1799C51.4451 19.6599 44.0051 16.3199 40.8551 16.3199H39.9351C39.0651 16.3199 38.1851 15.6099 37.3451 15.2599C37.6551 15.7699 38.1551 16.7099 38.2151 17.2999C38.2951 18.1099 38.2851 18.2399 38.2851 18.4099C38.2851 23.4799 43.5951 26.5399 47.7651 26.5399L50.4151 26.3399C50.6751 26.4699 51.0951 26.8099 51.2651 26.8099C51.4351 26.8099 51.3851 26.7999 51.4651 26.7099C51.3251 26.4899 51.1251 26.1699 51.1251 25.9999M54.3951 35.2099V35.5799C54.4351 35.7599 54.2951 36.0099 54.1651 36.0599C52.7151 36.5899 51.5851 38.8199 51.5851 40.1199C51.5851 40.2899 51.6951 40.3499 51.6551 41.1599C51.4751 44.4399 54.7951 46.7999 55.9751 49.8599C56.0651 49.8599 56.1651 49.8299 56.1551 49.7399C56.0651 49.7399 56.0951 49.5599 56.0951 49.0299C56.1651 48.5499 56.5851 47.9399 56.9351 47.6099C57.8951 46.6899 58.3851 45.0199 58.3851 43.8099C58.3851 43.2099 58.0451 41.0999 58.0451 40.9499C58.0451 39.0499 55.5351 36.8299 54.3951 35.1999M64.8351 19.7699C64.8351 19.5999 64.8351 18.7699 64.8351 17.8899L63.8951 12.9099C63.8251 12.5099 63.8951 12.1099 63.8751 11.6699C63.5551 12.0899 63.0551 12.9499 62.8451 13.0599C62.5151 13.2299 62.1951 13.3699 61.8551 13.3699C58.6851 13.4299 56.5151 18.7099 56.5151 21.2799C56.5151 23.4799 57.7951 25.3899 57.7951 25.6199C57.7951 25.7899 57.6651 25.8899 57.6751 26.1799C57.7651 26.1899 57.8351 26.2599 57.8351 26.2599C57.9851 26.1199 58.1951 25.8399 58.3151 25.6499H59.7751C62.7451 25.6499 64.8551 22.2399 64.8551 19.7599M70.1251 21.5799C70.9551 20.8699 70.8351 19.6899 71.5051 18.8699H71.2651C69.4851 19.2299 67.3551 18.9499 66.2151 20.8899C65.9251 21.3699 66.2851 21.9599 65.6551 22.5199C65.7351 22.6099 65.7351 22.6799 65.7351 22.6799H66.0351C66.1151 22.6099 66.0251 22.5499 66.1851 22.5499H67.8251C68.1951 22.5499 69.8951 21.7599 70.1151 21.5799M73.4451 32.9399C73.0151 32.7699 72.4851 32.7399 72.2251 32.4799C71.5951 31.8599 71.1651 30.5799 70.5851 29.8999C70.1251 29.3599 67.4951 28.5899 66.5551 28.5899C66.3851 28.5899 65.4751 28.5199 65.3151 28.5199C64.2651 28.5199 62.9251 28.8299 61.9951 29.2099C61.0851 29.5799 59.8351 30.8499 58.8651 30.7599C60.1151 31.1099 59.5051 32.0899 59.8251 32.9299C60.4051 34.4599 62.2851 35.3099 63.6051 35.3699C64.4151 35.3999 64.6851 35.4399 64.8551 35.4399C68.1651 35.4399 69.6751 33.6199 73.4551 32.9199" fill="#FBF8EE"/>
</svg>
