<svg width="104" height="72" viewBox="0 0 104 72" fill="none" xmlns="http://www.w3.org/2000/svg">
<path d="M42.7549 58.75C42.6749 58.71 42.5849 58.66 42.4749 58.61C42.3649 58.56 42.2449 58.52 42.1049 58.48C41.9649 58.44 41.8249 58.41 41.6749 58.38C41.5249 58.35 41.3649 58.34 41.2049 58.34C40.9049 58.34 40.6049 58.39 40.3049 58.49C40.0049 58.59 39.7449 58.74 39.5049 58.94C39.2649 59.14 39.0749 59.38 38.9349 59.68C38.7949 59.98 38.7149 60.33 38.7149 60.74C38.7149 61.15 38.7849 61.49 38.9249 61.79C39.0649 62.09 39.2549 62.34 39.4849 62.53C39.7249 62.73 39.9849 62.87 40.2849 62.97C40.5849 63.07 40.8849 63.12 41.1949 63.12C41.5649 63.12 41.8849 63.08 42.1749 63.01C42.4649 62.94 42.7049 62.85 42.8949 62.73L42.7049 63.63C42.5149 63.73 42.2949 63.81 42.0549 63.86C41.8149 63.91 41.4949 63.93 41.0949 63.93C40.6949 63.93 40.3149 63.86 39.9249 63.73C39.5249 63.59 39.1749 63.39 38.8549 63.13C38.5349 62.86 38.275 62.53 38.075 62.13C37.875 61.73 37.7749 61.27 37.7749 60.74C37.7749 60.21 37.875 59.74 38.075 59.34C38.275 58.94 38.5349 58.61 38.8549 58.34C39.1749 58.07 39.5249 57.87 39.9249 57.74C40.3149 57.6 40.7049 57.54 41.0949 57.54C41.5149 57.54 41.8849 57.58 42.1849 57.66C42.4849 57.74 42.7249 57.84 42.9149 57.95L42.7549 58.76V58.75Z" fill="#FBF8EE"/>
<path d="M48.0347 63.8198L47.3647 62.2298H44.9747L44.3047 63.8198H43.3848L46.0147 57.5698H46.3547L48.9847 63.8198H48.0347ZM46.4448 59.9798C46.4048 59.8798 46.3547 59.7598 46.3047 59.6198C46.2547 59.4798 46.2147 59.3498 46.1747 59.2198H46.1547C46.1247 59.3498 46.0847 59.4798 46.0347 59.6198C45.9847 59.7498 45.9347 59.8698 45.8947 59.9798L45.2847 61.4898H47.0447L46.4348 59.9798H46.4448Z" fill="#FBF8EE"/>
<path d="M53.2651 62.8298C53.1751 63.0598 53.0351 63.2498 52.8551 63.4098C52.6751 63.5698 52.4551 63.6998 52.1851 63.7898C51.9251 63.8798 51.6151 63.9298 51.2651 63.9298C50.9151 63.9298 50.6251 63.8898 50.3351 63.7998C50.0551 63.7198 49.8251 63.6198 49.6651 63.5098L49.4551 62.4898C49.7551 62.6998 50.0451 62.8498 50.3551 62.9598C50.6651 63.0698 50.9751 63.1198 51.3051 63.1198C51.6351 63.1198 51.9251 63.0298 52.1351 62.8598C52.3351 62.6898 52.4451 62.4498 52.4451 62.1598C52.4451 61.8898 52.3651 61.6598 52.1951 61.4798C52.0251 61.2998 51.7551 61.1498 51.3851 61.0298C50.8351 60.8498 50.4151 60.6098 50.1351 60.2998C49.8551 59.9898 49.7151 59.6298 49.7151 59.1998C49.7151 58.9898 49.7551 58.7798 49.8351 58.5798C49.9151 58.3798 50.0351 58.1998 50.1951 58.0398C50.3551 57.8798 50.5551 57.7598 50.8051 57.6698C51.0451 57.5798 51.3351 57.5298 51.6651 57.5298C51.9751 57.5298 52.2451 57.5698 52.4851 57.6398C52.7251 57.7198 52.8951 57.7998 53.0051 57.8798L52.8251 58.6498C52.7151 58.5698 52.5551 58.4898 52.3351 58.4098C52.1151 58.3298 51.8851 58.2898 51.6351 58.2898C51.3251 58.2898 51.0751 58.3698 50.8951 58.5398C50.7151 58.7098 50.6251 58.8998 50.6251 59.1298C50.6251 59.5398 50.9551 59.8598 51.6151 60.0898C51.8851 60.1798 52.1351 60.2898 52.3451 60.4098C52.5651 60.5298 52.7551 60.6698 52.9151 60.8298C53.0751 60.9898 53.1951 61.1698 53.2851 61.3798C53.3751 61.5898 53.4151 61.8198 53.4151 62.0798C53.4151 62.3598 53.3751 62.6098 53.2751 62.8298" fill="#FBF8EE"/>
<path d="M57.8051 62.8298C57.7151 63.0598 57.5751 63.2498 57.3951 63.4098C57.2151 63.5698 56.9951 63.6998 56.7251 63.7898C56.4651 63.8798 56.1551 63.9298 55.8051 63.9298C55.4551 63.9298 55.1651 63.8898 54.8751 63.7998C54.5951 63.7198 54.3751 63.6198 54.2051 63.5098L53.9951 62.4898C54.2951 62.6998 54.5851 62.8498 54.8951 62.9598C55.1951 63.0698 55.5151 63.1198 55.8451 63.1198C56.1751 63.1198 56.4651 63.0298 56.6751 62.8598C56.8751 62.6898 56.9851 62.4498 56.9851 62.1598C56.9851 61.8898 56.9051 61.6598 56.7351 61.4798C56.5651 61.2998 56.2951 61.1498 55.9251 61.0298C55.3751 60.8498 54.9551 60.6098 54.6751 60.2998C54.3951 59.9898 54.2551 59.6298 54.2551 59.1998C54.2551 58.9898 54.2951 58.7798 54.3751 58.5798C54.4551 58.3798 54.5751 58.1998 54.7351 58.0398C54.8951 57.8798 55.0951 57.7598 55.3451 57.6698C55.5851 57.5798 55.8751 57.5298 56.2051 57.5298C56.5151 57.5298 56.7851 57.5698 57.0251 57.6398C57.2651 57.7198 57.4351 57.7998 57.5451 57.8798L57.3651 58.6498C57.2551 58.5698 57.0951 58.4898 56.8751 58.4098C56.6551 58.3298 56.4251 58.2898 56.1751 58.2898C55.8651 58.2898 55.6151 58.3698 55.4351 58.5398C55.2551 58.7098 55.1651 58.8998 55.1651 59.1298C55.1651 59.5398 55.4951 59.8598 56.1551 60.0898C56.4251 60.1798 56.6751 60.2898 56.8851 60.4098C57.1051 60.5298 57.2951 60.6698 57.4551 60.8298C57.6151 60.9898 57.7351 61.1698 57.8251 61.3798C57.9151 61.5898 57.9551 61.8198 57.9551 62.0798C57.9551 62.3598 57.9151 62.6098 57.8151 62.8298" fill="#FBF8EE"/>
<path d="M60.035 57.6599H59.085V63.8199H60.035V57.6599Z" fill="#FBF8EE"/>
<path d="M65.6349 63.8198L64.9648 62.2298H62.5749L61.9048 63.8198H60.9849L63.6149 57.5698H63.9548L66.5848 63.8198H65.6349ZM64.0449 59.9798C63.9949 59.8798 63.9548 59.7598 63.9048 59.6198C63.8548 59.4798 63.8148 59.3498 63.7748 59.2198H63.7549C63.7249 59.3498 63.6849 59.4798 63.6349 59.6198C63.5849 59.7498 63.5349 59.8698 63.4949 59.9798L62.8849 61.4898H64.6448L64.0349 59.9798H64.0449Z" fill="#FBF8EE"/>
<path d="M66.7451 40.25C66.7451 38.92 66.4251 37.67 65.8651 36.56C65.7551 36.58 65.6351 36.58 65.5151 36.59C64.6551 39.59 62.8151 42.19 60.3551 43.99C60.2351 44.03 60.1151 44.06 59.9951 44.09C59.5151 44.22 59.0151 44.29 58.4951 44.28C55.5351 44.24 53.1651 41.77 53.2151 38.76C53.2551 35.75 55.6951 33.35 58.6551 33.39C59.1251 33.39 59.5851 33.47 60.0151 33.59C60.0451 33.59 60.0851 33.61 60.1151 33.61C59.5751 33.11 58.9651 32.67 58.3151 32.32C58.3151 32.32 58.3151 32.32 58.3051 32.32C58.1451 32.22 57.8951 32.11 57.6451 32C53.4451 32.4 50.1551 35.95 50.1551 40.25C50.1551 44.8 53.8451 48.51 58.3851 48.54C61.8251 47.18 64.6951 44.73 66.6051 41.61C66.6751 41.17 66.7251 40.72 66.7251 40.26M54.3451 49.59C55.1651 49.48 55.9551 49.32 56.7351 49.1C52.5851 48.3 49.4351 44.64 49.4351 40.26C49.4351 35.8 52.6951 32.1 56.9451 31.39C57.0651 31.26 57.1851 31.14 57.2951 31C57.4951 30.77 57.6751 30.51 57.8451 30.26C52.4151 30.37 48.0251 34.82 48.0251 40.28C48.0251 44.5 50.6451 48.12 54.3551 49.59M67.2051 36.18C66.9951 36.27 66.7851 36.35 66.5751 36.42C67.1051 37.54 67.4151 38.78 67.4451 40.1C67.6351 39.7 67.8151 39.29 67.9751 38.87C67.8351 37.93 67.5851 37.03 67.2051 36.19M68.9451 34.99C68.6351 35.29 68.3051 35.55 67.9651 35.77C68.1851 36.25 68.3551 36.75 68.5051 37.26C68.7051 36.51 68.8651 35.75 68.9651 34.97L68.9451 34.99ZM69.0551 34.2C69.0951 33.74 69.1251 33.28 69.1251 32.81C69.1251 24.13 62.5651 16.97 54.1451 15.99C54.2751 16.18 54.4051 16.38 54.5351 16.6C56.2351 19.57 53.6851 23.02 53.6151 23.05C51.3951 22.51 49.6151 21.24 48.7851 19.34C48.3651 18.39 48.2351 17.36 48.3451 16.32C42.1751 17.75 37.3051 22.56 35.7651 28.68C36.3651 28.54 37.0451 28.47 37.8151 28.57C38.2051 28.62 38.5551 28.74 38.8751 28.89C39.7551 25.91 41.6051 23.34 44.0651 21.56C44.0751 21.56 44.0851 21.56 44.0951 21.56V21.53C44.6651 21.34 45.2651 21.23 45.8951 21.24C48.8751 21.28 51.2551 23.77 51.2151 26.81C51.1651 29.84 48.7151 32.27 45.7351 32.22C45.2851 32.22 44.8451 32.15 44.4251 32.04C45.3451 32.86 46.4251 33.49 47.6251 33.87C46.0651 35.39 45.0751 37.61 45.0751 40.09C45.0751 41.26 45.2951 42.37 45.6951 43.37C46.0051 44.2 46.4451 44.98 46.9851 45.67C42.0551 43.67 38.5251 38.9 38.3251 33.31C37.8451 33.36 37.3651 33.34 36.8851 33.23C36.2851 33.09 35.7351 32.82 35.2451 32.46C35.2451 32.58 35.2251 32.69 35.2251 32.81C35.2251 42.16 42.8251 49.76 52.1751 49.76C52.3351 49.76 52.4951 49.74 52.6551 49.73C49.3851 47.85 47.1651 44.32 47.1651 40.28C47.1651 34.27 52.0551 29.38 58.0651 29.38C58.1651 29.38 58.2651 29.38 58.3551 29.39C58.9651 28.19 59.3151 26.81 59.3151 25.33C59.3151 23.32 58.6751 21.47 57.5951 20.03C62.1051 21.95 65.3851 26.21 65.9451 31.26C67.2151 31.65 68.3151 32.69 69.0351 34.19" fill="#FBF8EE"/>
<path d="M38.9047 35.5C40.1547 36.71 41.6847 37.31 43.1747 36.99C44.5547 36.69 45.6447 35.64 46.2947 34.19C46.2847 34.14 46.2647 34.09 46.2547 34.04C45.0247 32.89 43.5247 32.29 42.0847 32.65C39.6247 33.26 38.8847 35.56 38.9047 35.51" fill="#FBF8EE"/>
<path d="M40.1851 26.4C40.0151 28.13 40.4951 29.71 41.6751 30.67C42.7751 31.57 44.2651 31.77 45.8051 31.38C45.8351 31.34 45.8651 31.3 45.8951 31.25C46.0351 29.57 45.5751 28.02 44.3951 27.11C42.3851 25.56 40.1251 26.41 40.1751 26.39" fill="#FBF8EE"/>
<path d="M48.2348 30.1399C49.5348 28.9799 50.2447 27.4999 50.0347 25.9899C49.8347 24.5899 48.8747 23.4199 47.4747 22.6699C47.4247 22.6699 47.3748 22.6899 47.3148 22.6999C46.0748 23.8399 45.3648 25.2999 45.6148 26.7599C46.0448 29.2599 48.2848 30.1699 48.2348 30.1399Z" fill="#FBF8EE"/>
<path d="M57.2647 8.06982C55.5647 8.50982 54.2347 9.52983 53.7047 11.0098C53.2147 12.3798 53.5147 13.8898 54.3847 15.2398C54.4347 15.2598 57.4047 14.7198 57.9647 12.3898C58.5747 9.84983 57.2347 8.02983 57.2647 8.07983" fill="#FBF8EE"/>
<path d="M57.2551 33.8299C56.8551 35.5299 57.1251 37.1499 58.1651 38.2599C59.1351 39.2899 60.5851 39.6899 62.1651 39.5099C62.2051 39.4699 62.2351 39.4299 62.2751 39.3899C62.6351 37.7399 62.3851 36.1399 61.3351 35.0899C59.5451 33.2899 57.1951 33.8299 57.2551 33.8199" fill="#FBF8EE"/>
<path d="M58.2646 31.4698C59.8346 32.2198 61.4847 32.2898 62.7847 31.5098C63.9947 30.7798 64.6947 29.4398 64.8547 27.8598C64.8247 27.8198 62.2247 26.3298 60.3647 27.7498C58.3447 29.2898 58.2646 31.5298 58.2646 31.4798" fill="#FBF8EE"/>
<path d="M61.2051 33.26C61.9551 34.67 63.1251 35.62 64.5351 35.78C65.8451 35.93 67.1051 35.35 68.1151 34.29C68.1151 34.24 67.0251 31.74 64.8551 31.74C62.4951 31.74 61.1751 33.3 61.2151 33.26" fill="#FBF8EE"/>
<path d="M50.285 14.52C49.355 16.01 49.085 17.67 49.705 19.1C50.285 20.43 51.545 21.33 53.105 21.71C53.155 21.69 54.945 19.26 53.755 17.18C52.465 14.91 50.235 14.51 50.285 14.53" fill="#FBF8EE"/>
<path d="M34.8751 30.3201C35.3851 31.4801 36.2551 32.3001 37.3451 32.4801C38.3651 32.6501 39.3751 32.2501 40.2151 31.4501C40.2151 31.4101 40.2151 31.3701 40.2251 31.3401C39.7051 30.2301 38.8651 29.4201 37.7951 29.2701C35.9651 29.0101 34.8451 30.3601 34.8751 30.3301" fill="#FBF8EE"/>
</svg>
