<svg width="112" height="80" viewBox="0 0 112 80" fill="none" xmlns="http://www.w3.org/2000/svg">
<path d="M39 65.9239H40.4399V59.4639H43.73V58.1239H40.4399V53.6039H44.1799V52.2439H39V65.9339V65.9239ZM71.96 52.6239C71.47 52.2639 70.86 52.0839 70.13 52.0839C68.77 52.0539 67.74 52.7239 67.35 53.8539C67.21 54.2639 67.13 54.8239 67.13 55.4339V62.8439C67.13 63.6339 67.1799 64.4539 67.7699 65.1939C68.4499 66.0039 69.5699 66.0939 70.0299 66.0939C71.6599 66.0939 72.3499 65.2139 72.5699 64.8239C72.9299 64.2439 73 63.6639 73 62.9739V55.7139C73 54.6339 73 53.4239 71.96 52.6239ZM71.58 62.6139C71.58 63.3739 71.5299 64.0439 70.9399 64.4639C70.7099 64.6339 70.42 64.7239 70.08 64.7239C69.04 64.7239 68.73 63.9639 68.7 63.8839C68.6 63.5939 68.5599 63.2139 68.5599 62.4839V55.2139C68.5599 54.4739 68.77 53.9639 69.2 53.6839C69.45 53.5239 69.7399 53.4439 70.0599 53.4439C70.4899 53.4439 70.7699 53.5939 70.8099 53.6239C71.1099 53.7739 71.2299 54.0039 71.2899 54.1239C71.5299 54.5939 71.58 55.1939 71.58 56.2139V62.6139ZM62.62 65.9239H64.11V52.2339H62.62V65.9239ZM56.86 52.2339H55.3999V65.9239H60.2799V64.5639H56.85V52.2439L56.86 52.2339ZM51.35 52.6139C50.86 52.2539 50.2499 52.0739 49.5199 52.0739C48.1599 52.0439 47.13 52.7139 46.74 53.8439C46.6 54.2539 46.5199 54.8139 46.5199 55.4239V62.8339C46.5199 63.6239 46.5699 64.4439 47.1599 65.1839C47.8399 65.9939 48.9599 66.0839 49.4199 66.0839C51.0499 66.0839 51.74 65.2039 51.96 64.8139C52.32 64.2339 52.3899 63.6539 52.3899 62.9639V55.7039C52.3899 54.6239 52.39 53.4139 51.35 52.6139ZM50.97 62.6039C50.97 63.3639 50.92 64.0339 50.33 64.4539C50.1 64.6239 49.81 64.7139 49.47 64.7139C48.43 64.7139 48.12 63.9539 48.09 63.8739C47.99 63.5839 47.95 63.2039 47.95 62.4739V55.2039C47.95 54.4639 48.16 53.9539 48.59 53.6739C48.84 53.5139 49.13 53.4339 49.45 53.4339C49.88 53.4339 50.16 53.5839 50.2 53.6139C50.5 53.7639 50.6199 53.9939 50.6799 54.1139C50.9199 54.5839 50.97 55.1839 50.97 56.2039V62.6039ZM68.38 38.8839C70.63 35.9339 71.7599 32.2239 71.5199 28.5239C71.3899 26.3239 70.8099 24.2139 69.7899 22.2739C68.8999 20.5639 67.7 19.0439 66.25 17.7739C64.94 16.6339 63.47 15.7139 61.86 15.0639C54.06 11.6939 44.27 15.9839 41.45 23.9939C35.5 40.8739 57.25 52.9039 68.38 38.9039V38.8839ZM70.1799 29.8539C70.1099 32.3139 69.41 34.7239 68.13 36.8139C67.3 32.6639 67.66 28.2339 69.21 24.2839C69.9 26.0439 70.2299 27.9439 70.1799 29.8539ZM68.4199 22.6039C66.3099 27.2939 65.7799 32.6639 66.9099 37.6739C66.1799 37.5839 65.45 37.4639 64.73 37.3039C62.65 31.5039 63.1 24.8339 65.97 19.3839C66.94 20.3339 67.7599 21.4239 68.4099 22.6139L68.4199 22.6039ZM61.8999 16.5639C62.9799 17.0639 63.9899 17.6839 64.9199 18.4339C62.1099 23.6039 61.3299 29.8539 62.7799 35.5539C62.8899 36.0039 63.0199 36.4439 63.1499 36.8839C62.5199 36.6939 61.8999 36.4839 61.2999 36.2439C60.9899 35.5639 60.72 34.8739 60.49 34.1739C58.55 28.4339 59.0699 21.9239 61.9099 16.5639H61.8999ZM57.08 15.3239C58.29 15.4139 59.48 15.6639 60.62 16.0539C60.51 16.2639 60.3999 16.4839 60.2999 16.7039C58.6699 20.1139 57.86 23.9239 57.97 27.7039C58.04 30.3539 58.55 32.9539 59.48 35.4339C58.83 35.1139 58.21 34.7539 57.6 34.3739C54.63 28.5139 54.43 21.3339 57.09 15.3239H57.08ZM51.8199 15.9139C53.0399 15.5339 54.31 15.3239 55.6 15.2939C55.58 15.3339 55.5699 15.3739 55.5499 15.4139C53.3299 20.9239 53.2699 27.2639 55.3999 32.8139C54.5199 32.1039 53.6999 31.3239 52.9399 30.4939C50.9599 25.9439 50.5599 20.7239 51.8099 15.9139H51.8199ZM47.5399 18.0939C48.3899 17.4539 49.3099 16.9239 50.2699 16.4939C49.5299 19.9739 49.55 23.6139 50.38 27.0839C48.74 24.4239 47.6799 21.4439 47.2699 18.3039C47.3599 18.2339 47.4499 18.1639 47.5399 18.0939ZM46.0499 19.3739C46.6799 23.0339 48.14 26.4639 50.33 29.4539C47.49 28.3139 44.8 26.3939 42.87 24.1039C43.59 22.3339 44.6899 20.7239 46.0499 19.3839V19.3739ZM42.36 25.5939C44.87 28.3339 48.38 30.4739 51.98 31.4639C52.91 32.4739 53.92 33.4039 55.01 34.2439C50.7 34.2739 46.38 33.0439 42.76 30.6939C42.44 30.4939 42.14 30.2839 41.83 30.0639C41.77 28.5539 41.94 27.0339 42.36 25.5839V25.5939ZM42.0199 31.8539C42.0799 31.8939 42.14 31.9239 42.2 31.9639C46.53 34.7139 51.75 35.9539 56.86 35.5339C57.55 35.9639 58.26 36.3539 58.98 36.7239C54.09 38.4539 48.57 38.3739 43.71 36.5539C42.87 35.1039 42.2999 33.5039 42.0199 31.8539ZM48.46 41.4939C47.15 40.6739 45.98 39.6339 45 38.4339C50.16 39.9139 55.81 39.5939 60.76 37.5339C61.39 37.7839 62.0399 38.0039 62.6899 38.2039C58.5699 41.0139 53.4 42.1739 48.47 41.4939H48.46ZM64.4199 38.6539C65.1099 38.8039 65.8 38.9239 66.5 39.0239C66.07 39.4939 65.61 39.9339 65.13 40.3439C61.55 43.4139 56.34 44.4639 51.85 43.0539C56.37 42.9439 60.8199 41.3939 64.4299 38.6639L64.4199 38.6539Z" fill="#FBF8EE"/>
</svg>
