<svg width="104" height="72" viewBox="0 0 104 72" fill="none" xmlns="http://www.w3.org/2000/svg">
<path d="M65.615 25.7451H56.765C56.355 25.7451 55.955 25.6951 55.585 25.5951C55.575 25.5951 55.565 25.5951 55.555 25.5951C53.515 25.0551 52.005 23.1951 52.005 20.9851C52.005 23.1951 50.495 25.0551 48.455 25.5951C48.445 25.5951 48.435 25.5951 48.425 25.5951C48.045 25.6951 47.655 25.7451 47.245 25.7451H38.395C38.395 19.4651 42.645 14.1851 48.425 12.6151C48.435 12.6151 48.445 12.6151 48.455 12.6151C50.495 12.0751 52.005 10.2151 52.005 8.00513C52.005 10.2151 53.515 12.0751 55.555 12.6151C55.565 12.6151 55.575 12.6151 55.585 12.6151C61.365 14.1851 65.615 19.4751 65.615 25.7451Z" fill="#FBF8EE"/>
<path d="M61.5347 36.6251H55.3446C55.0546 36.6251 54.7846 36.5851 54.5146 36.5251H54.4946C53.0646 36.1451 52.0146 34.8451 52.0146 33.3051C52.0146 34.8551 50.9646 36.1551 49.5346 36.5251H49.5146C49.2546 36.5951 48.9746 36.6251 48.6846 36.6251H42.4946C42.4946 32.2351 45.4646 28.5351 49.5146 27.4351H49.5346C50.9646 27.0551 52.0146 25.7551 52.0146 24.2151C52.0146 25.7651 53.0646 27.0651 54.4946 27.4351H54.5146C58.5646 28.5351 61.5347 32.2351 61.5347 36.6251Z" fill="#FBF8EE"/>
<path d="M58.675 44.6451H54.335C54.135 44.6451 53.9349 44.6251 53.7549 44.5751C53.7549 44.5751 53.745 44.5751 53.735 44.5751C52.735 44.3151 51.9949 43.4051 51.9949 42.3151C51.9949 43.3951 51.2549 44.3051 50.2549 44.5751C50.2549 44.5751 50.245 44.5751 50.235 44.5751C50.045 44.6251 49.8549 44.6451 49.6549 44.6451H45.3149C45.3149 41.5651 47.395 38.975 50.235 38.205C50.235 38.205 50.2449 38.205 50.2549 38.205C51.2549 37.945 51.9949 37.0351 51.9949 35.9451C51.9949 37.0251 52.735 37.935 53.735 38.205C53.735 38.205 53.7449 38.205 53.7549 38.205C56.5849 38.975 58.675 41.5651 58.675 44.6451Z" fill="#FBF8EE"/>
<path d="M52.1349 45.5952L52.0149 45.3152L51.8949 45.5952L50.7148 48.2952C51.0148 48.6752 51.4849 48.9252 52.0149 48.9252C52.5449 48.9252 53.0048 48.6852 53.3148 48.2952L52.1349 45.5952Z" fill="#FBF8EE"/>
<path d="M43.2648 63.485C43.1348 63.455 43.0148 63.375 42.9248 63.295C42.7648 63.135 42.5948 62.755 42.4048 62.325L39.9448 56.355V56.335H39.5448L36.4048 63.725L36.3848 63.775H36.9748L37.8648 61.655H40.9348L41.2048 62.355C41.4148 62.935 41.7047 63.335 42.0547 63.535C42.4047 63.735 42.7748 63.835 43.1348 63.835C43.1748 63.835 43.2048 63.835 43.2448 63.835V63.495L43.2648 63.485ZM38.0848 61.125L39.4248 58.025L40.7048 61.125H38.0848Z" fill="#FBF8EE"/>
<path d="M77.0548 63.485C76.9248 63.455 76.8048 63.375 76.7148 63.295C76.5548 63.135 76.3848 62.755 76.1948 62.325L73.7348 56.355V56.335H73.3348L70.1948 63.725L70.1748 63.775H70.7648L71.6548 61.655H74.7249L74.9948 62.355C75.2048 62.935 75.4948 63.335 75.8448 63.535C76.1948 63.735 76.5648 63.835 76.9248 63.835C76.9648 63.835 76.9949 63.835 77.0349 63.835V63.495L77.0548 63.485ZM71.8748 61.125L73.2148 58.025L74.4948 61.125H71.8748Z" fill="#FBF8EE"/>
<path d="M63.475 57.765C63.955 58.495 65.3849 60.695 65.3849 60.695V63.775H66.465V60.625L69.075 56.395L69.1149 56.335H68.525L66.215 60.045L64.6249 57.585C64.3849 57.205 64.1349 56.895 63.8849 56.675C63.6249 56.455 63.2049 56.335 62.9249 56.335H62.335V56.555C62.385 56.555 62.4649 56.555 62.5049 56.585C62.6549 56.645 62.7149 56.585 63.4849 57.775L63.475 57.765Z" fill="#FBF8EE"/>
<path d="M51.5546 63.4849C51.3046 63.4449 51.0846 63.3449 50.8946 63.1849C50.6746 63.0049 50.4246 62.7249 50.1546 62.2749L49.0146 60.295C50.1846 60.005 50.7746 59.3649 50.7746 58.3749C50.7746 57.5849 50.4746 57.0349 49.8846 56.7449C49.3046 56.4649 48.6546 56.325 47.9446 56.325H45.4546V56.575C45.6446 56.605 45.7846 56.6749 45.8546 56.8049C45.9546 56.9849 46.0046 57.2549 46.0046 57.6249V63.7649H47.0846V60.3549H47.8046L48.9146 62.2349C49.2746 62.8449 49.6046 63.2749 49.9046 63.5149C50.2046 63.7549 50.5646 63.8749 50.9646 63.8749C51.1046 63.8749 51.2346 63.8649 51.3546 63.8449C51.4346 63.8349 51.4946 63.815 51.5546 63.795V63.4749V63.4849ZM48.6346 59.7349C48.3646 59.8449 48.1246 59.8949 47.8946 59.8949C47.6446 59.8949 47.3746 59.865 47.0946 59.795V56.8949C47.3746 56.8249 47.6446 56.795 47.8946 56.795C48.1146 56.795 48.3646 56.8549 48.6346 56.9649C48.8946 57.0749 49.1246 57.2549 49.3146 57.4849C49.4946 57.7149 49.5946 58.0149 49.5946 58.3749C49.5946 58.7049 49.5046 58.9949 49.3146 59.2249C49.1346 59.4549 48.9046 59.6249 48.6346 59.7349Z" fill="#FBF8EE"/>
<path d="M60.4349 63.4849C60.1849 63.4449 59.9649 63.3449 59.7749 63.1849C59.5549 63.0049 59.3049 62.7249 59.0349 62.2749L57.895 60.295C59.065 60.005 59.6549 59.3649 59.6549 58.3749C59.6549 57.5849 59.355 57.0349 58.765 56.7449C58.185 56.4649 57.535 56.325 56.825 56.325H54.335V56.575C54.525 56.605 54.665 56.6749 54.735 56.8049C54.835 56.9849 54.8849 57.2549 54.8849 57.6249V63.7649H55.9649V60.3549H56.6849L57.795 62.2349C58.155 62.8449 58.4849 63.2749 58.7849 63.5149C59.0849 63.7549 59.4449 63.8749 59.8449 63.8749C59.9849 63.8749 60.1149 63.8649 60.2349 63.8449C60.3149 63.8349 60.3749 63.815 60.4349 63.795V63.4749V63.4849ZM57.515 59.7349C57.245 59.8449 57.0049 59.8949 56.7749 59.8949C56.5249 59.8949 56.2549 59.865 55.9749 59.795V56.8949C56.2549 56.8249 56.5249 56.795 56.7749 56.795C56.9949 56.795 57.245 56.8549 57.515 56.9649C57.775 57.0749 58.0049 57.2549 58.1949 57.4849C58.3749 57.7149 58.4749 58.0149 58.4749 58.3749C58.4749 58.7049 58.3849 58.9949 58.1949 59.2249C58.0149 59.4549 57.785 59.6249 57.515 59.7349Z" fill="#FBF8EE"/>
<path d="M33.1648 60.025C32.8848 60.155 32.7048 60.315 32.6148 60.505C32.5348 60.695 32.4848 60.925 32.4848 61.175V63.095C32.2548 63.215 32.0148 63.305 31.7548 63.375C31.4948 63.445 31.1648 63.475 30.7948 63.475C30.0048 63.475 29.3648 63.195 28.8848 62.645C28.4048 62.095 28.1548 61.185 28.1548 59.945C28.1548 59.365 28.2448 58.815 28.4348 58.315C28.6248 57.815 28.9148 57.405 29.3148 57.095C29.7048 56.785 30.2048 56.625 30.7948 56.625C31.4548 56.625 31.9248 56.775 32.3548 57.035C32.7548 57.275 33.0348 57.605 33.1548 58.095H33.4548C33.4548 57.875 33.4348 57.785 33.4048 57.625C33.3748 57.375 33.2948 57.165 33.1648 57.015C32.9448 56.755 32.5948 56.535 32.1248 56.365C31.6548 56.195 31.0948 56.115 30.4548 56.115C29.7548 56.115 29.1348 56.285 28.6048 56.625C28.0748 56.965 27.6648 57.425 27.3748 58.005C27.0948 58.585 26.9448 59.235 26.9448 59.945C26.9448 60.655 27.1148 61.375 27.4348 61.985C27.7648 62.605 28.2148 63.095 28.7948 63.455C29.3748 63.815 30.0448 63.995 30.7748 63.995C31.3148 63.995 31.8148 63.935 32.2548 63.825C32.6948 63.715 33.1248 63.535 33.5248 63.285H33.5448V61.085C33.5448 60.725 33.5948 60.385 33.7048 60.225C33.7548 60.145 33.8248 60.085 33.9348 60.045V59.845C33.6048 59.875 33.3348 59.925 33.1448 60.015L33.1648 60.025Z" fill="#FBF8EE"/>
</svg>
