<svg width="104" height="72" viewBox="0 0 104 72" fill="none" xmlns="http://www.w3.org/2000/svg">
<path d="M82.6349 29.8301H80.955L86.2349 42.1401H87.9149L82.6349 29.8301ZM30.325 35.1901H17.715V29.8101H16.085V42.1301H17.715V36.8801H31.6949V42.0901H33.325V38.3101L30.325 35.1901ZM33.265 35.0001L33.2849 29.8201H31.6349V35.0001H33.265ZM42.405 29.3501C38.735 29.3501 35.7549 32.3301 35.7549 36.0001C35.7549 39.6701 38.735 42.6501 42.405 42.6501C46.075 42.6501 49.0549 39.6701 49.0549 36.0001C49.0549 32.3301 46.075 29.3501 42.405 29.3501ZM42.405 41.0001C39.645 41.0001 37.395 38.7501 37.395 35.9901C37.395 33.2301 39.645 30.9801 42.405 30.9801C45.165 30.9801 47.4149 33.2301 47.4149 35.9901C47.4149 38.7501 45.165 41.0001 42.405 41.0001ZM60.155 41.5801L55.1149 29.8401H53.4349L58.715 42.1501H61.825V29.8401H60.145V41.5801H60.155ZM51.6149 42.1501H53.2949V29.8401H51.6149V42.1501ZM70.585 42.1501H72.265V29.8401H70.585V42.1501ZM61.9849 29.8401L67.265 42.1501H68.9449L63.6649 29.8401H61.9849ZM79.1349 41.5801L74.0949 29.8401H72.4149L77.6949 42.1501H80.8049V29.8401H79.1249V41.5801H79.1349Z" fill="#FBF8EE"/>
</svg>
