<svg width="104" height="72" viewBox="0 0 104 72" fill="none" xmlns="http://www.w3.org/2000/svg">
<path d="M36.5547 26.3066L35.9947 27.7867C33.5947 34.3067 31.7147 35.7466 30.9747 36.3466C30.6847 36.5766 30.0247 37.1066 29.5047 38.5266C29.5047 38.5466 29.4847 38.5766 29.4647 38.6066L27.0647 46.3066L23.2947 35.2166L20.3047 26.3366H20.4847C22.3047 26.3366 23.9147 27.6266 24.4747 29.5266L27.3047 37.8167C27.3047 37.8167 27.6247 38.7366 27.9747 39.7666L29.2547 37.9866C29.5147 37.7466 31.7447 30.8466 31.7447 30.8466L32.2647 29.3666C32.8447 27.4766 34.7347 26.3167 36.5547 26.3167V26.3066Z" fill="#FBF8EE"/>
<path d="M82.5249 44.7166C82.3449 44.3066 82.2349 43.8666 82.1649 43.4066C81.9649 42.0866 82.1349 40.6066 82.1449 39.3566V35.8166C82.1649 35.6266 82.1749 35.5466 82.1649 35.1366V35.0866C82.1649 33.1066 81.1249 31.9866 79.5549 31.0466C78.6649 30.4966 78.5449 29.8966 78.4749 29.7266C77.9249 28.0766 76.6249 27.0766 75.1149 26.6866C75.0649 26.6666 75.0149 26.6666 74.9649 26.6466C74.9449 26.6466 74.9249 26.6466 74.8949 26.6366C72.9049 26.2566 69.9049 27.3366 69.1449 29.3866C69.0049 29.8366 68.9749 30.1966 68.9649 30.3166C68.9649 30.3366 68.9649 30.3466 68.9649 30.3766C69.9849 29.4466 71.5049 28.6166 73.6749 28.6266C75.3349 28.6266 76.6949 29.2466 78.0149 29.9466C78.0749 29.9766 78.1249 30.0166 78.1849 30.0466C78.2949 30.1566 78.6449 30.4966 78.8249 30.9966C79.0149 31.8766 79.1149 32.8966 79.1049 34.0966V35.9166C79.1049 36.2966 78.9549 36.2566 78.9149 36.2366C78.9049 36.2366 78.9049 36.2266 78.9049 36.2266C77.3549 34.1866 74.3449 34.0666 72.4849 34.2366C68.2249 34.6166 64.7549 39.7366 67.2949 43.7166C68.9049 46.2366 72.1049 46.8366 74.7749 46.0666C76.9949 45.4266 78.2149 43.8366 78.8249 41.5866C78.8649 41.4566 78.8949 41.3266 78.9349 41.1766C78.9649 41.1366 79.0449 41.0466 79.0849 41.2066C79.1549 44.1366 79.9949 46.3566 82.3149 46.3666H83.6949C83.2649 46.3666 82.6549 45.0666 82.5149 44.7366L82.5249 44.7166ZM79.0849 40.0566C79.0849 40.2066 79.0449 40.3566 78.9749 40.4866C78.7749 40.8466 78.2949 41.5666 77.5449 42.0466C76.0549 43.1066 74.7049 43.6366 73.4749 43.6366C71.0349 43.6266 69.8249 42.6166 69.8249 40.5966C69.8249 39.5766 70.3949 38.0466 71.1549 37.3666C72.0049 36.6166 72.9849 36.2166 74.0649 36.0466C76.6749 35.6466 79.0249 36.6266 79.0849 37.4666V40.0466V40.0566Z" fill="#FBF8EE"/>
<path d="M50.8048 42.8466C49.8048 43.4766 48.6848 43.8466 47.4148 43.9666C43.5248 44.3566 41.2348 43.5466 40.1048 38.4366C40.0448 38.1466 40.0048 37.8466 39.9848 37.5566C39.9548 37.1366 39.9148 36.4966 39.9248 35.9166C39.9248 35.8766 39.9248 35.8366 39.9248 35.7866C39.9248 35.5666 40.0048 35.1266 40.2248 35.0266C40.4248 34.9466 40.5748 35.2266 40.6548 35.3766C40.7748 35.6266 40.9048 35.8666 41.0348 36.1066C42.5248 38.7466 45.9048 38.7966 48.3348 37.6666C48.7448 37.4766 49.1648 37.2266 49.4248 36.8366C49.7248 36.3766 49.8648 35.7966 49.9648 35.2666C50.0648 34.7366 50.4748 34.6866 50.8348 34.3966C51.2048 34.1066 51.4848 33.7166 51.6448 33.2666C51.9848 32.3366 51.8048 31.2766 51.4248 30.3966C50.9748 29.3366 50.2948 28.3766 49.3848 27.7566C46.2248 25.6366 42.6448 26.7966 40.3448 28.6166C38.4948 30.0866 37.4148 32.1366 36.9048 34.5266C36.7948 34.9966 36.7348 35.4766 36.7348 35.9566C36.6548 39.2166 37.3248 41.9366 39.6548 44.1466C41.8148 46.1866 44.8148 46.7966 47.5748 46.2066C48.6348 45.9766 49.6548 45.5066 50.4848 44.7566C50.8848 44.3866 51.2348 43.9566 51.5148 43.4666C51.7648 43.0366 52.2448 42.1466 52.2148 41.6166C52.2148 41.6166 51.6548 42.3166 50.8248 42.8366L50.8048 42.8466ZM40.1148 34.0866C40.2748 33.1066 40.5448 32.2666 40.9148 31.5766L41.2348 31.0566C42.4048 29.1266 45.1448 28.4666 47.0748 29.1666C48.3748 29.6366 49.5348 30.7166 50.1048 32.0766C50.5548 33.1466 50.7348 34.6366 49.4048 34.9766C48.9648 35.0866 48.5148 35.1766 48.0648 35.2466C47.4748 35.3466 46.8848 35.4166 46.2848 35.4766C45.6348 35.5366 44.9748 35.5666 44.3148 35.5666C43.6548 35.5666 43.0248 35.5366 42.3948 35.4466C41.8348 35.3666 41.2848 35.2366 40.7548 35.0166C40.5748 34.9366 40.3648 34.8466 40.2448 34.6766C40.1348 34.5166 40.0648 34.2966 40.1048 34.0866H40.1148Z" fill="#FBF8EE"/>
<path d="M67.715 26.3168C67.715 26.3168 65.435 26.3168 64.285 27.7468C64.085 27.9868 63.905 28.3468 63.735 28.6668C62.925 30.2168 62.465 32.7668 62.335 35.7568C62.315 36.1568 62.205 36.5368 62.005 36.8768C61.485 37.7468 60.505 39.3068 60.505 39.3068C60.355 38.8968 60.215 38.4868 60.215 38.4868C59.695 37.0468 59.295 35.5368 58.845 34.0668C58.515 33.0068 57.525 29.3768 56.975 28.3668C56.075 26.6968 54.675 26.1768 53.015 26.3468C53.015 26.3468 53.235 27.0168 53.335 27.2968L57.005 37.8568L58.385 41.5568C58.675 42.3468 58.695 43.2668 58.595 44.1368C58.485 45.1468 58.195 46.1168 57.705 46.9968C55.275 51.3468 48.895 51.9368 44.725 50.3868C44.325 50.2368 43.985 50.0268 43.625 49.7868C43.665 49.8168 43.965 50.7968 44.385 51.4168C44.765 51.9768 45.125 52.4668 45.765 52.9268C46.945 53.7668 48.605 53.8668 50.035 53.7568C56.485 53.2668 59.355 46.0968 61.115 40.6068C61.265 40.1268 61.415 39.6468 61.565 39.1668C61.755 38.5368 62.085 37.8968 62.255 37.2568C62.435 36.5868 63.055 35.3268 63.055 35.3268C65.145 31.6868 67.705 26.3268 67.705 26.3268L67.715 26.3168Z" fill="#FBF8EE"/>
<path d="M33.5147 20.6167C33.3547 20.5067 33.2047 20.4367 33.0647 20.3667C33.4847 20.1667 34.0047 19.8667 34.0047 19.3267C34.0047 18.8667 33.6547 18.6067 33.5047 18.5267C33.3147 18.4367 33.1247 18.4067 32.6047 18.3967C32.0947 18.3967 31.7947 18.4167 31.3547 18.4367V18.6067H31.7347L31.6947 22.5067H31.3247V22.6967C32.2347 22.6867 32.9347 22.6767 33.5547 22.2967C33.8747 22.1067 34.0847 21.8567 34.0847 21.5367C34.0847 21.2167 33.8747 20.8567 33.5147 20.6067V20.6167ZM33.1347 22.2467C32.8647 22.4067 32.5347 22.4367 32.2747 22.4667C32.2947 20.3267 32.3047 19.8367 32.3347 18.6367C32.5847 18.6367 32.8947 18.6267 33.1447 18.8867C33.2747 19.0267 33.4047 19.2967 33.4047 19.5167C33.4047 20.0167 32.8247 20.3767 32.6047 20.4867C32.5547 20.5067 32.4847 20.5567 32.4847 20.6267C32.4847 20.6967 32.5447 20.7167 32.5747 20.7267C32.6447 20.7567 32.7047 20.7667 32.7647 20.7967C33.2947 21.0167 33.4847 21.4567 33.4847 21.7067C33.4847 21.9267 33.3647 22.1167 33.1347 22.2467Z" fill="#FBF8EE"/>
<path d="M38.3646 20.7767C37.6846 19.3767 37.3646 18.5867 37.3546 18.5467C37.3246 18.4767 37.3146 18.4467 37.3146 18.3767C37.1046 18.4067 37.0246 18.4167 36.8046 18.4267C36.5246 19.1267 36.1246 19.7667 35.7246 20.3967C35.5546 20.6667 35.3847 20.9367 35.2147 21.2067C35.0747 21.4167 34.9346 21.6167 34.7946 21.8267C34.5346 22.2167 34.4346 22.3867 34.2646 22.6967L34.8347 22.7167C34.9847 22.4167 35.0246 22.3367 35.4446 21.5967C35.5346 21.4267 35.6346 21.2567 35.7346 21.0867C35.9746 20.6667 35.9847 20.6667 36.2047 20.6667H36.9746C37.1446 20.6667 37.2447 20.6667 37.3347 20.6567C37.4247 20.6467 37.4947 20.6167 37.5947 20.5867C37.8047 21.0367 38.1546 21.7467 38.3746 22.1967C38.5546 22.5767 38.5646 22.6067 38.6046 22.7667C38.8846 22.6767 38.9546 22.6567 39.2246 22.6167C39.0446 22.1967 38.9746 22.0567 38.3546 20.7767H38.3646ZM36.9047 20.4767C36.7347 20.4767 36.5146 20.4767 36.3546 20.4567C36.2446 20.4567 36.1946 20.4467 36.1946 20.3767C36.1946 20.3467 36.2547 20.2367 36.2747 20.1867C36.4847 19.7967 36.7047 19.4067 36.9547 19.0367C37.1447 19.4967 37.2147 19.6767 37.5247 20.3767C37.3747 20.4267 37.2747 20.4567 36.9047 20.4567V20.4767Z" fill="#FBF8EE"/>
<path d="M40.175 22.6867L39.665 22.8467C39.665 22.7467 39.6851 22.6567 39.6851 22.5567C39.6951 22.3367 39.7851 20.3667 39.7851 19.8167C39.7851 19.3467 39.775 18.8667 39.725 18.4467C39.955 18.4367 40.0151 18.4267 40.3051 18.3767C40.4951 18.6467 40.6851 18.9367 41.2551 19.5467C41.4751 19.7867 42.2951 20.6267 42.6251 20.9567C43.0951 21.4267 43.1451 21.4867 43.5051 21.8767C43.4751 21.5167 43.4651 21.3967 43.4651 20.9467V20.3867C43.4651 19.3067 43.4651 19.1067 43.4351 18.5367C43.6851 18.4867 43.7551 18.4667 43.9651 18.3967C43.9651 19.0467 43.9551 19.1367 43.9351 19.7167C43.9251 20.1167 43.9051 20.5167 43.9051 20.9267C43.9051 21.1667 43.9051 21.9267 43.9451 22.2367C43.9551 22.3267 43.9751 22.4167 44.0251 22.4967C43.8251 22.6267 43.745 22.6767 43.545 22.8167C43.225 22.4567 43.2251 22.4567 42.6151 21.8367C42.0451 21.2367 41.4751 20.6567 40.9051 20.0467C40.3651 19.4867 40.365 19.4867 40.235 19.2867C40.235 19.4667 40.235 19.6367 40.235 19.8067C40.235 20.0867 40.2251 20.2967 40.2051 20.7567C40.1751 21.4067 40.1451 22.0667 40.1451 22.6967L40.175 22.6867Z" fill="#FBF8EE"/>
<path d="M46.8749 20.8065V21.9265C46.8749 22.2865 46.875 22.3965 46.895 22.7565C46.595 22.7665 46.5349 22.7765 46.2449 22.7865V22.1465C46.2449 21.9265 46.245 21.7065 46.265 21.4865V20.8765C45.995 20.5865 45.8549 20.4365 45.5649 20.0765C45.4649 19.9465 44.945 19.2765 44.825 19.1265C44.525 18.7665 44.515 18.7465 44.335 18.4665C44.635 18.3765 44.7149 18.3465 45.0049 18.2065C45.3249 18.6865 45.4249 18.8265 45.7449 19.2465C46.3649 20.0365 46.4649 20.1465 46.7549 20.4565C46.9449 20.2965 47.0349 20.2265 47.2349 20.0065C47.5249 19.6765 47.7249 19.4165 47.9349 19.1165C48.1949 18.7365 48.245 18.6165 48.325 18.4165C48.535 18.4065 48.595 18.4065 48.825 18.3865V18.4165C48.675 18.6665 48.535 18.8665 48.265 19.2265C47.575 20.1165 47.2549 20.4365 46.8849 20.8065H46.8749Z" fill="#FBF8EE"/>
<path d="M51.8849 20.8268C51.2049 19.4168 50.8849 18.6368 50.8649 18.5968C50.8349 18.5268 50.8349 18.4968 50.8249 18.4268C50.6149 18.4568 50.5349 18.4667 50.3149 18.4767C50.0349 19.1767 49.6349 19.8167 49.2349 20.4467C49.0649 20.7167 48.8949 20.9867 48.7249 21.2467C48.5849 21.4567 48.4449 21.6567 48.3049 21.8667C48.0449 22.2567 47.9449 22.4268 47.7749 22.7368L48.3449 22.7567C48.4949 22.4567 48.5249 22.3767 48.9549 21.6367C49.0449 21.4667 49.1449 21.2968 49.2449 21.1268C49.4749 20.7068 49.4949 20.7068 49.7149 20.7068H50.4849C50.6549 20.7068 50.7549 20.7067 50.8449 20.6967C50.9349 20.6867 51.0049 20.6568 51.1049 20.6268C51.3149 21.0768 51.6749 21.7868 51.8849 22.2368C52.0649 22.6168 52.0749 22.6367 52.1149 22.8067C52.3949 22.7167 52.4649 22.6968 52.7349 22.6568C52.5549 22.2368 52.4849 22.0968 51.8649 20.8168L51.8849 20.8268ZM50.4249 20.5168C50.2549 20.5168 50.0349 20.5167 49.8649 20.5067C49.7549 20.5067 49.7049 20.4968 49.7049 20.4268C49.7049 20.3968 49.7649 20.2868 49.7849 20.2368C49.9949 19.8468 50.2149 19.4567 50.4749 19.0867C50.6649 19.5467 50.7349 19.7268 51.0349 20.4268C50.8849 20.4868 50.7849 20.5167 50.4149 20.5067L50.4249 20.5168Z" fill="#FBF8EE"/>
<path d="M53.6951 22.7267L53.1851 22.8867C53.1851 22.7867 53.2051 22.6968 53.2051 22.5968C53.2151 22.3768 53.3051 20.4068 53.3051 19.8568C53.3051 19.3868 53.2951 18.9068 53.2451 18.4868C53.4751 18.4768 53.5351 18.4667 53.8251 18.4167C54.0151 18.6867 54.2051 18.9767 54.7751 19.5867C54.9951 19.8267 55.8151 20.6667 56.1451 20.9967C56.6151 21.4667 56.6651 21.5267 57.0251 21.9167C56.9951 21.5567 56.985 21.4368 56.985 20.9868V20.4268C56.985 19.3468 56.9851 19.1468 56.9551 18.5768C57.2051 18.5268 57.275 18.5068 57.485 18.4368C57.485 19.0868 57.4751 19.1767 57.4551 19.7567C57.4451 20.1567 57.425 20.5568 57.425 20.9668C57.425 21.2068 57.4251 21.9667 57.4651 22.2767C57.4751 22.3667 57.495 22.4568 57.545 22.5368C57.345 22.6668 57.2651 22.7168 57.0651 22.8568C56.7451 22.4968 56.7451 22.4968 56.1351 21.8768C55.5651 21.2768 54.995 20.6967 54.425 20.0867C53.885 19.5267 53.8851 19.5268 53.7551 19.3268C53.7551 19.5068 53.7551 19.6768 53.7551 19.8468C53.7551 20.1268 53.745 20.3368 53.725 20.7968C53.695 21.4468 53.665 22.1068 53.665 22.7368L53.6951 22.7267Z" fill="#FBF8EE"/>
<path d="M59.4351 18.6967L59.6251 18.4167C59.8351 18.4667 59.9251 18.4867 60.1951 18.5067C60.5651 18.5367 60.9251 18.5368 61.2651 18.5368C62.0751 18.5368 62.6751 18.5368 63.0551 18.4268L63.0751 18.4467L62.8451 18.8067C62.4151 18.8567 62.2751 18.8568 61.5951 18.8468C61.5851 19.5568 61.5851 19.6467 61.5751 20.4967C61.5751 20.6967 61.5551 21.6667 61.5551 21.8867C61.5551 22.1967 61.5551 22.4468 61.5751 22.8568C61.2851 22.8268 61.205 22.8268 60.925 22.8268C60.955 22.3268 60.9551 22.2568 60.9551 21.5668C60.9551 21.3668 60.9751 20.3968 60.9651 20.1768C60.9651 19.7268 60.9651 19.2768 60.9651 18.8268C60.6251 18.8068 60.4551 18.8067 60.1351 18.8067C59.8151 18.8067 59.6551 18.7668 59.4451 18.7168L59.4351 18.6967Z" fill="#FBF8EE"/>
<path d="M63.1948 18.6965V18.5366C63.4448 18.5166 63.6848 18.5066 63.9348 18.4866C64.1448 18.4766 64.3548 18.4666 64.5748 18.4666C64.7948 18.4666 65.4748 18.4666 65.8748 18.8966C66.0148 19.0466 66.0648 19.1866 66.0648 19.3566C66.0648 19.5766 65.9848 19.9266 65.5548 20.3866C65.2948 20.6666 65.1348 20.7465 64.8948 20.8665C65.8448 21.8065 66.1748 22.1166 66.8148 22.5666L66.2748 22.9566C65.9548 22.6866 65.6448 22.4166 65.3448 22.1266C64.6748 21.4866 64.4748 21.2665 64.1948 20.9465C64.4848 20.8765 64.8248 20.8065 65.1048 20.5065C65.2548 20.3465 65.4148 20.0965 65.4148 19.9165C65.4148 19.5865 65.3348 19.2465 65.1048 19.0065C64.8148 18.7065 64.4648 18.7065 64.2148 18.6965C64.1748 19.0265 64.1448 19.2365 64.1248 19.8365C64.1148 20.3665 64.1048 20.9066 64.1048 21.4366C64.1048 21.8866 64.0948 22.3266 64.0748 22.7766L63.4148 22.8266C63.4848 22.2066 63.4948 22.0066 63.5148 21.3466C63.5348 20.8166 63.5548 20.1465 63.5548 19.6665C63.5548 19.2865 63.5549 19.0466 63.5349 18.7066H63.2048L63.1948 18.6965Z" fill="#FBF8EE"/>
<path d="M69.6047 22.4066L69.1747 22.8666C69.0847 22.8466 69.0248 22.8266 68.8948 22.8066C68.6748 22.7866 68.4147 22.7866 68.1747 22.7866C67.5947 22.7866 67.3847 22.8166 67.1147 22.8566C67.1747 22.4966 67.1947 22.3266 67.2247 21.9266C67.2747 21.3466 67.2947 20.7666 67.3047 20.1066C67.3047 19.8266 67.3047 19.5566 67.2947 19.2866C67.2747 18.9266 67.2448 18.7766 67.1948 18.5166C67.3848 18.5366 67.5548 18.5466 67.7448 18.5566C67.9348 18.5666 68.1348 18.5766 68.3948 18.5766C69.0248 18.5766 69.2147 18.5366 69.4247 18.4866L69.4548 18.5666L69.0948 18.8466C68.8248 18.8266 68.6248 18.8166 68.3948 18.8166C68.2348 18.8166 68.0747 18.8166 67.9147 18.8166L67.8848 20.4166H68.6747C69.0747 20.4166 69.2348 20.3966 69.5248 20.2966L69.5748 20.3466L69.1948 20.8066C68.9548 20.7766 68.8948 20.7666 68.5848 20.7666H67.8647L67.7848 22.5066H68.5447C69.1147 22.5066 69.2648 22.5066 69.5248 22.3366L69.5948 22.4066H69.6047Z" fill="#FBF8EE"/>
<path d="M72.7751 22.4166L72.3452 22.8766C72.2552 22.8566 72.1951 22.8366 72.0651 22.8166C71.8451 22.7966 71.5852 22.7966 71.3452 22.7966C70.7652 22.7966 70.5552 22.8266 70.2852 22.8666C70.3452 22.5066 70.3651 22.3366 70.3951 21.9366C70.4451 21.3566 70.4651 20.7766 70.4751 20.1166C70.4751 19.8366 70.4751 19.5666 70.4651 19.2966C70.4451 18.9366 70.4151 18.7866 70.3651 18.5266C70.5551 18.5466 70.7251 18.5566 70.9151 18.5666C71.1051 18.5766 71.3051 18.5866 71.5651 18.5866C72.1951 18.5866 72.3852 18.5466 72.5952 18.4966L72.6251 18.5766L72.2651 18.8566C71.9951 18.8366 71.7951 18.8266 71.5651 18.8266C71.4051 18.8266 71.2451 18.8266 71.0851 18.8266L71.0551 20.4266H71.8452C72.2452 20.4266 72.4051 20.4066 72.6951 20.3066L72.7451 20.3566L72.3651 20.8166C72.1251 20.7866 72.0651 20.7766 71.7551 20.7766H71.0352L70.9551 22.5166H71.7151C72.2851 22.5166 72.4351 22.5166 72.6951 22.3466L72.7651 22.4166H72.7751Z" fill="#FBF8EE"/>
</svg>
