<svg width="46" height="62" viewBox="0 0 46 62" fill="none" xmlns="http://www.w3.org/2000/svg">
<path d="M45.3743 61.6877H42.3803V61.4607C42.3678 60.4266 41.5249 59.5879 40.4934 59.5879C39.4619 59.5879 38.619 60.4266 38.6065 61.4607V61.6877H35.1722V61.4607C35.1596 60.4266 34.3105 59.5879 33.2853 59.5879C32.26 59.5879 31.4109 60.4266 31.3983 61.4607V61.6877H27.9641V61.4607C27.9515 60.4266 27.1024 59.5879 26.0772 59.5879C25.0519 59.5879 24.2028 60.4266 24.1902 61.4607V61.6877H20.7497V61.4607C20.7371 60.4266 19.8943 59.5879 18.8627 59.5879C17.8312 59.5879 16.9884 60.4266 16.9758 61.4607V61.6877H13.5416V61.4607C13.529 60.4266 12.6799 59.5879 11.6546 59.5879C10.6294 59.5879 9.78026 60.4266 9.76768 61.4607V61.6877H6.33344V61.4607C6.32086 60.4266 5.47803 59.5879 4.4465 59.5879C3.41497 59.5879 2.57213 60.4266 2.55955 61.4607V61.6877H0.0625V58.9889H0.295223C1.34562 58.9889 2.18846 58.1376 2.18846 57.0972C2.18846 56.0567 1.33933 55.2054 0.301513 55.2054H0.0687898V54.9721L0.0625 51.7562H0.295223C1.34562 51.7562 2.18846 50.9049 2.18846 49.8645C2.18846 48.8241 1.33933 47.9728 0.301513 47.9728H0.0687898V47.7395L0.0625 44.5235H0.295223C1.34562 44.5235 2.18846 43.6723 2.18846 42.6318C2.18846 41.5914 1.33933 40.7401 0.301513 40.7401H0.0687898V40.5068L0.0625 37.2909H0.295223C1.34562 37.2909 2.18846 36.4396 2.18846 35.3992C2.18846 34.3587 1.33933 33.5075 0.301513 33.5075H0.0687898V33.2741L0.0625 30.0582H0.295223C1.34562 30.0582 2.18846 29.2069 2.18846 28.1665C2.18846 27.1261 1.33933 26.2748 0.301513 26.2748H0.0687898V26.0415L0.0625 22.8256H0.295223C1.34562 22.8256 2.18846 21.9743 2.18846 20.9338C2.18846 19.8934 1.33933 19.0421 0.301513 19.0421H0.0687898V18.8088L0.0625 15.5929H0.295223C1.34562 15.5929 2.18846 14.7416 2.18846 13.7012C2.18846 12.6607 1.33933 11.8095 0.301513 11.8095H0.0687898V11.5761L0.0625 8.36023H0.295223C1.34562 8.36023 2.18846 7.50896 2.18846 6.46851C2.18846 5.42807 1.33933 4.57679 0.301513 4.57679H0.0687898V4.34348L0.0625 0.925781H2.57842L2.56584 1.22846C2.56584 2.28151 3.40868 3.12648 4.45279 3.12648C5.4969 3.12648 6.33973 2.27521 6.33973 1.23476C6.33973 1.20323 6.33344 1.18432 6.33344 1.1654V0.925781H9.79284L9.78026 1.22846C9.78026 2.28151 10.6231 3.12648 11.6672 3.12648C12.7113 3.12648 13.5541 2.27521 13.5541 1.23476C13.5541 1.20323 13.5479 1.18432 13.5479 1.1654V0.925781H17.0072L16.9947 1.22846C16.9947 2.28151 17.8375 3.12648 18.8816 3.12648C19.9257 3.12648 20.7686 2.27521 20.7686 1.23476C20.7686 1.20323 20.7623 1.18432 20.7623 1.1654V0.925781H24.2217L24.2091 1.22846C24.2091 2.28151 25.0519 3.12648 26.096 3.12648C27.1401 3.12648 27.983 2.27521 27.983 1.23476C27.983 1.20323 27.9767 1.18432 27.9767 1.1654V0.925781H31.4361L31.4235 1.22846C31.4235 2.28151 32.2663 3.12648 33.3104 3.12648C34.3545 3.12648 35.1974 2.27521 35.1974 1.23476C35.1974 1.20323 35.1911 1.18432 35.1911 1.1654V0.925781H38.6505L38.6379 1.22846C38.6379 2.28151 39.4807 3.12648 40.5248 3.12648C41.569 3.12648 42.4118 2.27521 42.4118 1.23476C42.4118 1.20323 42.4055 1.18432 42.4055 1.1654V0.925781H45.4057V4.60202L45.1604 4.5831C45.1604 4.5831 45.1101 4.5831 45.0912 4.57679H45.085C44.0031 4.57679 43.1603 5.42176 43.1603 6.46221C43.1603 7.50265 44.0094 8.35392 45.0472 8.35392C45.1164 8.34762 45.1416 8.34131 45.1604 8.34131L45.4057 8.32239V11.8221L45.1604 11.8095C45.1604 11.8095 45.1101 11.8095 45.085 11.8032H45.0787C43.9968 11.8032 43.154 12.6481 43.154 13.6886C43.154 14.729 44.0031 15.5803 45.0409 15.5803C45.1101 15.574 45.1353 15.5677 45.1604 15.5677L45.4057 15.5551V19.0547L45.1604 19.0358C45.1604 19.0358 45.1101 19.0358 45.0912 19.0295C44.0031 19.0232 43.1603 19.8745 43.1603 20.9149C43.1603 21.9554 44.0094 22.8066 45.0472 22.8066C45.1164 22.8003 45.1416 22.794 45.1604 22.794L45.4057 22.7751V26.2748L45.1604 26.2622C45.1604 26.2622 45.1101 26.2622 45.085 26.2559H45.0787C43.9968 26.2559 43.154 27.1008 43.154 28.1413C43.154 29.1817 44.0031 30.033 45.0409 30.033C45.1101 30.0267 45.1353 30.0204 45.1604 30.0204L45.4057 30.0078V33.5075L45.1604 33.4948C45.1604 33.4948 45.1101 33.4948 45.085 33.4885H45.0787C43.9968 33.4885 43.154 34.3335 43.154 35.3739C43.154 36.4144 44.0031 37.2657 45.0409 37.2657C45.1101 37.2594 45.1353 37.253 45.1604 37.253L45.4057 37.2404V40.7401L45.1604 40.7212C45.1604 40.7212 45.1101 40.7212 45.0912 40.7149H45.085C44.0031 40.7149 43.1603 41.5599 43.1603 42.6003C43.1603 43.6407 44.0094 44.492 45.0472 44.492C45.1164 44.4857 45.1416 44.4794 45.1604 44.4794L45.4057 44.4605V47.9602L45.1604 47.9476C45.1604 47.9476 45.1101 47.9476 45.085 47.9412H45.0787C43.9968 47.9412 43.154 48.7862 43.154 49.8267C43.154 50.8671 44.0031 51.7184 45.0409 51.7184C45.1101 51.7121 45.1353 51.7058 45.1604 51.7058L45.4057 51.6932V55.1928L45.1604 55.1739C45.1604 55.1739 45.1101 55.1739 45.0912 55.1676C44.0031 55.1676 43.1603 56.0126 43.1603 57.053C43.1603 58.0935 44.0094 58.9447 45.0472 58.9447C45.1164 58.9384 45.1416 58.9321 45.1604 58.9321L45.4057 58.9132V61.6436L45.3743 61.6877ZM42.8269 61.2274H44.9088V59.4555C43.6572 59.4051 42.6571 58.3646 42.6571 57.1035C42.6571 55.8423 43.6572 54.8019 44.9088 54.7514V52.2291C43.6572 52.1787 42.6571 51.1382 42.6571 49.8771C42.6571 48.616 43.6572 47.5755 44.9088 47.5251V45.0028C43.6572 44.9523 42.6571 43.9119 42.6571 42.6507C42.6571 41.3896 43.6572 40.3492 44.9088 40.2987V37.7764C43.6572 37.726 42.6571 36.6855 42.6571 35.4244C42.6571 34.1632 43.6572 33.1228 44.9088 33.0724V30.5501C43.6572 30.4996 42.6571 29.4592 42.6571 28.198C42.6571 26.9369 43.6572 25.8964 44.9088 25.846V23.3237C43.6572 23.2733 42.6571 22.2328 42.6571 20.9717C42.6571 19.7105 43.6572 18.6701 44.9088 18.6196V16.0973C43.6572 16.0469 42.6571 15.0065 42.6571 13.7453C42.6571 12.4842 43.6572 11.4437 44.9088 11.3933V8.87099C43.6572 8.82055 42.6571 7.7801 42.6571 6.51896C42.6571 5.25781 43.6572 4.21737 44.9088 4.16692V1.43654H42.8332C42.7577 2.66616 41.7325 3.63724 40.4871 3.63724C39.2417 3.63724 38.2228 2.65986 38.141 1.43654H35.6188C35.5433 2.66616 34.5181 3.63724 33.2727 3.63724C32.0273 3.63724 31.0084 2.65986 30.9266 1.43654H28.4044C28.3289 2.66616 27.3037 3.63724 26.0583 3.63724C24.8129 3.63724 23.794 2.65986 23.7122 1.43654H21.19C21.1145 2.66616 20.0893 3.63724 18.8439 3.63724C17.5985 3.63724 16.5795 2.65986 16.4978 1.43654H13.9756C13.9001 2.66616 12.8748 3.63724 11.6295 3.63724C10.3841 3.63724 9.36513 2.65986 9.28336 1.43654H6.76115C6.68567 2.66616 5.66043 3.63724 4.41505 3.63724C3.16967 3.63724 2.18217 2.65986 2.1004 1.43654H0.527946V4.16692C1.72301 4.28043 2.6539 5.28934 2.6539 6.51265C2.6539 7.73596 1.71672 8.74488 0.527946 8.85838V11.3996C1.72301 11.5131 2.6539 12.522 2.6539 13.7453C2.6539 14.9686 1.71672 15.9775 0.527946 16.091V18.6322C1.72301 18.7458 2.6539 19.7547 2.6539 20.978C2.6539 22.2013 1.71672 23.2102 0.527946 23.3237V25.8649C1.72301 25.9784 2.6539 26.9873 2.6539 28.2106C2.6539 29.434 1.71672 30.4429 0.527946 30.5564V33.0976C1.72301 33.2111 2.6539 34.22 2.6539 35.4433C2.6539 36.6666 1.71672 37.6755 0.527946 37.789V40.3302C1.72301 40.4437 2.6539 41.4527 2.6539 42.676C2.6539 43.8993 1.71672 44.9082 0.527946 45.0217V47.5629C1.72301 47.6764 2.6539 48.6853 2.6539 49.9086C2.6539 51.1319 1.71672 52.1409 0.527946 52.2544V54.7956C1.72301 54.9091 2.6539 55.918 2.6539 57.1413C2.6539 58.3646 1.71672 59.3735 0.527946 59.487V61.2715H2.11927C2.24506 60.0924 3.25143 59.1717 4.45279 59.1717C5.65414 59.1717 6.66051 60.0924 6.78631 61.2715H9.32739C9.45319 60.0924 10.4596 59.1717 11.6609 59.1717C12.8623 59.1717 13.8686 60.0924 13.9944 61.2715H16.5355C16.6613 60.0924 17.6677 59.1717 18.869 59.1717C20.0704 59.1717 21.0768 60.0924 21.2026 61.2715H23.7436C23.8694 60.0924 24.8758 59.1717 26.0772 59.1717C27.2785 59.1717 28.2849 60.0924 28.4107 61.2715H30.9518C31.0776 60.0924 32.0839 59.1717 33.2853 59.1717C34.4866 59.1717 35.493 60.0924 35.6188 61.2715H38.1599C38.2857 60.0924 39.292 59.1717 40.4934 59.1717C41.6948 59.1717 42.7011 60.0924 42.8269 61.2715V61.2274Z" fill="#121113" fill-opacity="0.3"/>
</svg>
