<svg width="32" height="32" viewBox="0 0 32 32" fill="none" xmlns="http://www.w3.org/2000/svg">
<rect width="32" height="32" fill="#00140D"/>
<g clip-path="url(#clip0_7_2282)">
<path d="M25.0679 16.3321C25.0679 13.8389 23.4891 11.9327 20.9989 11.9327C18.5087 11.9327 16.9904 13.8389 16.9904 16.3511C16.9904 18.8633 18.5692 20.7696 20.9989 20.7696C23.4285 20.7696 25.0679 18.9655 25.0679 16.3304M16.2416 23.0792L17.2325 22.7555C17.881 24.1128 18.9739 25.0859 21.0594 25.0859C24.4194 25.0859 25.0074 22.9372 25.0074 20.8094V20.425C25.0074 20.1203 25.0281 19.4918 25.0471 19.1888H24.9866C24.3796 20.6068 22.9219 21.7218 20.9989 21.7218C18.002 21.7218 15.958 19.4105 15.958 16.3702C15.958 13.3299 18.0626 11.0393 20.9989 11.0393C23.0031 11.0393 24.3399 12.0522 24.9866 13.3507H25.0471C25.0264 12.9248 25.0264 12.6218 25.0264 12.3984V11.3233H25.9983C25.9775 11.647 25.9775 11.8911 25.9775 12.2149V20.8302C25.9775 24.8435 23.7312 25.9983 21.0369 25.9983C18.3427 25.9983 16.8469 24.66 16.2399 23.0792" fill="#BFF143"/>
<path d="M12.2435 16.6073C12.2435 14.6145 11.1973 13.2606 9.53718 13.2606C7.87706 13.2606 6.81009 14.6145 6.81009 16.5866C6.81009 18.5586 7.83556 19.9333 9.53718 19.9333C11.2388 19.9333 12.2435 18.5776 12.2435 16.6073ZM6.76859 20.6103H6.72709C6.74784 20.9184 6.76859 21.2059 6.76859 21.514V21.9867H4C4.02075 21.5556 4.02075 21.0015 4.02075 20.4475V7H6.87062V10.3052C6.87062 11.0237 6.84987 11.7214 6.84987 12.4815C7.50527 11.5985 8.57224 10.88 10.2324 10.88C13.1237 10.88 15.1332 13.3022 15.1332 16.5866C15.1332 19.871 13.0615 22.2325 10.1701 22.2325C8.59126 22.2325 7.48451 21.6577 6.76686 20.6103" fill="#BFF143"/>
</g>
<defs>
<clipPath id="clip0_7_2282">
<rect width="22" height="19" fill="white" transform="translate(4 7)"/>
</clipPath>
</defs>
</svg>
