<svg width="104" height="72" viewBox="0 0 104 72" fill="none" xmlns="http://www.w3.org/2000/svg">
<path d="M19.1529 31.1946H17.9493L15.4795 39.5657L13.0975 31.2069H11.6557L9.29873 39.6516L6.80386 31.1946H5.5L8.57158 40.6827H9.9632L12.3452 32.3238L14.7273 40.6827H16.0938L19.1529 31.1946ZM20.1684 40.6827H21.3092V31.1946H20.1684V40.6827ZM21.5098 29.1448C21.5098 29.5621 21.1839 29.8935 20.7451 29.8935C20.3063 29.8935 19.9803 29.5498 19.9803 29.1448C19.9803 28.7397 20.3314 28.396 20.7451 28.396C21.1588 28.396 21.5098 28.7152 21.5098 29.1448ZM35.589 35.3679V40.6704H34.4481V35.4906C34.4481 34.9505 34.4481 34.5455 34.4105 34.0545C34.2851 32.7657 33.5454 31.8329 31.9156 31.8451C30.2983 31.8574 28.8942 32.9866 28.8942 35.9448V40.6581H27.7533V27.5H28.8942V33.0235C29.496 31.4769 30.6995 30.9491 32.1287 30.9491C34.1848 30.9491 35.3508 32.0415 35.5388 33.7845C35.5764 34.2632 35.5764 34.6069 35.5764 35.3801M24.8071 37.565C24.8071 39.5903 25.459 40.2531 26.5999 40.4249V40.6827H24.8572C23.9796 40.2285 23.6788 39.5043 23.6788 37.8841V32.1274H22.4376V31.2682H23.6788V29.1693H24.8196V31.2682H26.6626V32.1274H24.8196V37.5527L24.8071 37.565ZM67.3203 37.0249C67.3203 39.3693 68.411 39.8971 68.8122 40.2653V40.6827H65.8033C65.0135 40.2408 64.8003 39.4921 64.8003 37.7614V35.6502C64.8003 35.2574 64.8004 34.8032 64.7627 34.3245C64.6875 33.3181 64.1233 32.643 62.8947 32.643C61.6661 32.643 60.7007 33.6863 60.7007 36.3375V37.0372C60.7007 39.3816 61.2398 39.9094 62.1926 40.2776V40.6949H59.1837C58.3939 40.2531 58.1808 39.5043 58.1808 37.7736V31.1332H60.7133V32.3116C61.3652 31.3173 62.5186 30.8755 63.8099 30.8755C65.8785 30.8755 67.0696 31.8819 67.2702 33.5513C67.3328 34.03 67.3454 34.5209 67.3454 35.2942V37.0126L67.3203 37.0249ZM54.2191 37.1722V36.3989C52.2006 36.2516 50.8466 36.7058 50.8466 37.9578C50.8466 38.8047 51.4358 39.1975 52.326 39.1975C53.354 39.1975 54.2065 38.4978 54.2065 37.1722M54.2441 40.6827V39.4675C53.7552 40.474 52.5892 40.9404 51.3481 40.9404C49.6681 40.9404 48.2138 39.9708 48.2138 38.1664C48.2138 36.0675 50.0442 34.8892 53.5797 34.8892H54.2065V34.6928C54.2065 34.4105 54.2065 34.1159 54.1689 33.7968C54.0937 33.1339 53.6549 32.6552 52.6645 32.6552C51.674 32.6552 51.1099 33.2321 51.0346 34.2632H48.5774C48.6526 32.1274 50.4203 30.9123 52.7522 30.9123C55.4853 30.9123 56.5008 32.0783 56.6513 33.7231C56.6889 34.1773 56.7014 34.6682 56.7014 35.196V40.6949H54.2316L54.2441 40.6827ZM44.8413 35.8957C44.8413 33.944 43.8885 32.6307 42.3841 32.6307C40.9925 32.6307 39.8641 33.4776 39.8641 35.7975V36.2393C39.8641 38.4119 41.1304 39.1852 42.2963 39.1852C43.7631 39.1852 44.8413 38.0928 44.8413 35.8834M47.4616 35.7238C47.4616 39.1606 45.3052 40.9159 42.7978 40.9159C41.3059 40.9159 40.3029 40.474 39.8641 39.443V40.6581H37.3316V27.5H39.8641V32.5939C40.3781 31.3542 41.6193 30.8877 43.1238 30.8877C45.8568 30.8877 47.4616 32.913 47.4616 35.7238ZM78.1147 31.1332L74.1906 41.0264C73.1626 43.604 72.1095 44.5 70.1286 44.5C69.6773 44.5 69.3638 44.4877 68.9877 44.4264V42.7202C69.2385 42.757 69.4767 42.757 69.74 42.757C70.605 42.757 71.1692 42.3643 71.5704 41.4069L71.6957 41.1L67.7215 31.1209H70.5423L72.962 38.7801L75.344 31.1209H78.1022L78.1147 31.1332ZM83.9068 37.1599V36.3866C81.8884 36.2393 80.5344 36.6935 80.5344 37.9455C80.5344 38.7924 81.1236 39.1852 82.0137 39.1852C83.0418 39.1852 83.8943 38.4856 83.8943 37.1599M83.9319 40.6704V39.4552C83.443 40.4617 82.277 40.9282 81.0359 40.9282C79.3559 40.9282 77.9016 39.9585 77.9016 38.1542C77.9016 36.0552 79.732 34.8769 83.2675 34.8769H83.8943V34.6805C83.8943 34.3982 83.8943 34.1036 83.8567 33.7845C83.7815 33.1217 83.3427 32.643 82.3522 32.643C81.3618 32.643 80.7977 33.2199 80.7224 34.2509H78.2652C78.3404 32.1152 80.1207 30.9 82.44 30.9C85.1731 30.9 86.1886 32.0661 86.339 33.7108C86.3767 34.165 86.3892 34.656 86.3892 35.1838V40.6827H83.9194L83.9319 40.6704ZM97.0081 37.0126C97.0081 39.357 97.5472 39.8848 98.5 40.2531V40.6704H95.4911C94.7013 40.2285 94.4881 39.4798 94.4881 37.7491V35.6379C94.4881 35.2451 94.4881 34.791 94.4505 34.3123C94.3753 33.3058 93.8111 32.6307 92.5825 32.6307C91.3539 32.6307 90.3885 33.674 90.3885 36.3253V37.0249C90.3885 39.3693 90.9276 39.8971 91.8804 40.2653V40.6827H88.8715C88.0817 40.2408 87.8686 39.4921 87.8686 37.7614V31.1332H90.4011V32.3116C91.053 31.3173 92.2064 30.8755 93.4977 30.8755C95.5663 30.8755 96.7573 31.8819 96.9579 33.5513C97.0206 34.03 97.0332 34.5209 97.0332 35.2942V37.0126H97.0081Z" fill="#FBF9F0"/>
</svg>
