<svg width="1440" height="1000" viewBox="0 0 1440 1000" fill="none" xmlns="http://www.w3.org/2000/svg">
<g clip-path="url(#clip0_89_26155)">
<path d="M227.359 358.022H214.423V320.018H226.336C238.939 320.018 246.768 327.675 246.768 340C246.768 351.622 239.875 358.022 227.359 358.022ZM256.311 392.6C256.311 407.171 247.723 415.195 232.131 415.195H214.423V368.367H230.936C247.061 368.367 256.311 377.2 256.311 392.6ZM279.519 390.639C279.519 374.414 270.115 363.652 252.821 359.763C263.821 354.203 269.976 346.176 269.976 337.06C269.976 320.012 257.103 309.836 235.537 309.836H192.067V425.379H235.025C260.807 425.379 279.519 410.77 279.519 390.639Z" fill="white"/>
<path d="M311.671 378.116L328.068 339.904L344.749 378.116H311.671ZM307.199 388.462H349.252L365.271 425.379H389.556L339.403 309.18H330.511L279.648 425.379H291.352L307.199 388.462Z" fill="white"/>
<path d="M486.151 389.792L409.979 309.709L405.447 310.298L400.436 309.402V425.379H412.227V345.584L486.841 423.945L488.448 425.484L492.151 425.064L497.775 425.604V309.837H486.151V389.792Z" fill="white"/>
<path d="M551.393 425.379H573.752V371.424L617.78 309.836H604.443L569.292 359.823L533.645 309.836H507.032L551.393 372.078V425.379Z" fill="white"/>
<path d="M663.863 378.116H630.785L647.184 339.904L663.863 378.116ZM649.624 309.18L598.763 425.379H610.465L626.313 388.462H668.365L684.384 425.379H708.669L658.517 309.18H649.624Z" fill="white"/>
<path d="M731.341 345.584L805.955 423.945L807.561 425.482L811.265 425.064L816.888 425.604V309.837H805.265V389.792L729.093 309.709L724.561 310.298L719.549 309.402V425.379H731.341V345.584Z" fill="white"/>
<path d="M965.792 309.836H865.387V320.018H904.409V425.379H926.767V320.018H965.792V309.836Z" fill="white"/>
<path d="M1013.47 361.29H1000.88V320.018H1012.45C1026.31 320.018 1034.58 328.099 1034.58 341.634C1034.58 354.308 1027.09 361.29 1013.47 361.29ZM1000.88 371.471H1006.53L1045.04 425.379H1068.36V420.458L1030.29 368.396C1047.24 363.168 1057.62 352.112 1057.62 339.022C1057.62 320.474 1043.95 309.836 1020.11 309.836H978.52V425.379H1000.88V371.471Z" fill="white"/>
<path d="M1156.78 415.195H1102.76V368.367H1142.98V358.348H1102.76V320.018H1153.03V309.836H1080.41V425.379H1156.78V415.195Z" fill="white"/>
<path d="M1193.91 415.195V368.367H1234.13V358.348H1193.91V320.018H1244.19V309.836H1171.56V425.379H1247.93V415.195H1193.91Z" fill="white"/>
<path d="M231.533 583.693H304.977V569.079H231.533V495.364H323.339V480.452H194.392L194.393 687.836H330.187V672.924H231.535L231.533 583.693Z" fill="white"/>
<path d="M432.139 568.704C406.319 559.783 384.021 552.08 384.021 527.151C384.021 506.871 399.473 494.764 425.357 494.764C446.631 494.764 459.847 506.144 459.847 524.462C459.847 527.062 459.847 530.623 459.544 533.802L459.312 536.246H487.009L487.029 534.034C487.149 520.128 482.124 507.646 472.497 497.935C459.792 485.119 439.376 477.467 417.888 477.467C375.387 477.467 349.989 506.518 349.989 534.607C349.991 575.484 382.568 586.607 411.312 596.419C437.523 605.367 460.159 613.094 460.16 639.347C460.16 660.428 443.009 673.523 415.401 673.523C386.644 673.523 374.373 662.41 374.373 636.367C374.373 633.77 374.373 630.824 374.671 628.27L374.961 625.779H344.08V628.011C344.08 647.734 352.015 664.124 367.028 675.414C380.239 685.35 398.412 690.82 418.201 690.82C461.344 690.82 493.877 664.972 493.877 630.695C493.876 590.034 461.077 578.702 432.139 568.704Z" fill="white"/>
<path d="M694.915 618.955C687.185 642.284 664.827 656.212 635.103 656.212C584.284 656.212 551.444 621.131 551.441 566.838C551.441 544.018 557.312 526.171 568.889 513.791C580.509 501.367 597.343 495.067 618.92 495.067C637.144 495.067 650.943 499.76 659.932 509.02C668.475 517.818 672.563 530.522 672.083 546.776L672.015 549.074H701.348L701.441 546.939C702.14 530.872 695.967 515.176 684.06 502.742C668.681 486.678 645.052 477.467 619.231 477.467C560.915 477.467 515.235 525.112 515.235 585.936C515.236 645.731 561.016 690.82 621.723 690.82C673.152 690.82 699.012 655.067 706.064 621.608L706.521 619.439L695.547 617.047L694.915 618.955Z" fill="white"/>
<path d="M830.552 605.191H764.525L797.253 528.895L830.552 605.191ZM816.755 479.263H802.933L711.667 687.836H729L757.942 620.397H837.163L866.417 687.836H906.756L817.336 480.611L816.755 479.263Z" fill="white"/>
<path d="M992.971 578.329H968.441V495.364H991.105C1019.15 495.364 1035.24 511.081 1035.24 538.487C1035.24 564.553 1020.63 578.329 992.971 578.329ZM1004.17 480.452H931.299L931.301 687.836H968.444L968.441 593.24H990.171C1038.53 593.24 1073.63 568.456 1073.63 534.311C1073.63 500.083 1048.31 480.452 1004.17 480.452Z" fill="white"/>
<path d="M1143.02 583.693H1216.47V569.079H1143.02V495.364H1234.83V480.452H1105.88L1105.88 687.836H1241.68V672.924H1143.02L1143.02 583.693Z" fill="white"/>
</g>
<defs>
<clipPath id="clip0_89_26155">
<rect width="1440" height="1000" fill="white"/>
</clipPath>
</defs>
</svg>
