<svg width="104" height="72" viewBox="0 0 104 72" fill="none" xmlns="http://www.w3.org/2000/svg">
<path d="M44.6703 54.6732H40.2204V51.0132H39.1104V59.6732H40.2204V55.6632H44.6703V59.6732H45.7804V51.0132H44.6703V54.6732Z" fill="#FBF8EE"/>
<path d="M64.81 51.0132C63.78 54.8832 63.24 56.9732 63.17 57.2732C63.1 57.5732 63.02 57.9532 62.91 58.4232L62.86 58.6432C62.74 58.0332 62.56 57.2932 62.35 56.4032L60.92 51.0132H59.85C58.89 54.5832 58.36 56.6332 58.23 57.1632C58.1 57.6932 58 58.1832 57.91 58.6432C57.76 57.9132 57.6 57.2032 57.43 56.5132L55.95 51.0132H54.79L57.21 59.6732H58.54C59.53 55.8832 60.06 53.8332 60.13 53.5132C60.2 53.1932 60.28 52.7932 60.39 52.3232C60.57 53.2132 60.71 53.8332 60.8 54.1732L62.22 59.6732H63.55L65.97 51.0132H64.81Z" fill="#FBF8EE"/>
<path d="M70.4503 51.0132H69.1903L65.8403 59.6732H66.9903L67.9303 57.1432H71.6703L72.6103 59.6732H73.7503L70.4503 51.0132ZM68.2703 56.2232L69.3203 53.3732C69.5103 52.8432 69.6503 52.4032 69.7503 52.0632L69.8003 51.8932L69.9603 52.4032C70.0703 52.7632 70.1803 53.0832 70.2903 53.3632L71.3403 56.2232H68.2703Z" fill="#FBF8EE"/>
<path d="M32.97 51.0132H30.25V59.6732H33.32C34.11 59.6732 34.81 59.4932 35.42 59.1332C36.03 58.7732 36.49 58.2632 36.82 57.5932C37.15 56.9232 37.31 56.1432 37.31 55.2532C37.31 53.9032 36.93 52.8532 36.18 52.1132C35.43 51.3732 34.35 51.0132 32.96 51.0132H32.97ZM35.84 57.1132C35.6 57.6432 35.24 58.0332 34.79 58.3232C34.34 58.6132 33.8 58.7432 33.2 58.7432H31.37V51.9632H32.95C34.01 51.9632 34.81 52.2432 35.37 52.8032C35.93 53.3632 36.21 54.1832 36.21 55.2632C36.21 55.9732 36.09 56.5932 35.84 57.1232V57.1132Z" fill="#FBF8EE"/>
<path d="M47.1699 59.6732L50.52 51.0132L47.1699 59.6732Z" fill="#FBF8EE"/>
<path d="M51.3001 52.4131C51.4101 52.7731 51.5201 53.0931 51.6301 53.3731C51.5201 53.0931 51.4101 52.7731 51.3101 52.4131H51.3001Z" fill="#FBF8EE"/>
<path d="M50.52 51.0132L47.1699 59.6732H48.3199L49.2599 57.1432H52.9999L53.9399 59.6732H55.08L51.78 51.0132H50.52ZM52.6799 56.2232H49.6099L50.66 53.3732C50.76 53.1032 50.84 52.8632 50.91 52.6432C50.98 52.4232 51.04 52.2332 51.09 52.0632L51.14 51.9032L51.2999 52.4132C51.4099 52.7732 51.5199 53.0932 51.6199 53.3732L52.6699 56.2332L52.6799 56.2232Z" fill="#FBF8EE"/>
<path d="M50.52 51.0132L47.1699 59.6732H48.3199L49.2599 57.1432H52.9999L53.9399 59.6732H55.08L51.78 51.0132H50.52ZM52.6799 56.2232H49.6099L50.66 53.3732C50.76 53.1032 50.84 52.8632 50.91 52.6432C50.98 52.4232 51.04 52.2332 51.09 52.0632L51.14 51.9032L51.2999 52.4132C51.4099 52.7732 51.5199 53.0932 51.6199 53.3732L52.6699 56.2332L52.6799 56.2232Z" fill="#FBF8EE"/>
<path d="M57.27 46.5532C57.27 46.5532 61.02 50.3632 66.4 44.9932C70.59 40.8132 69.7499 30.1032 69.7399 30.1732C69.7199 30.3332 61.75 32.4732 58.66 35.4832C52.59 41.3932 57.27 46.5432 57.27 46.5432V46.5532Z" fill="#FBF8EE"/>
<path d="M52.4803 47.1931L52.7303 47.0431L44.1402 25.1931C44.0702 25.0131 44.1603 24.8131 44.3403 24.7431C44.5203 24.6731 44.7203 24.7631 44.7903 24.9431L53.3403 46.6831L53.5303 46.5731C54.4003 43.0331 58.4502 33.2231 56.1102 25.2031C51.3902 9.08311 40.7402 12.2731 40.7402 12.2731C40.7402 12.2731 31.3202 14.4231 34.1802 28.0231C36.1102 37.1831 49.0402 45.2131 52.4902 47.1931H52.4803Z" fill="#FBF8EE"/>
</svg>
