<svg width="104" height="72" viewBox="0 0 104 72" fill="none" xmlns="http://www.w3.org/2000/svg">
<path d="M28.1979 47.2304C25.8779 47.2304 24.3779 45.9604 24.3779 44.0004C24.3779 41.8104 26.9179 40.7604 28.9579 39.9204C29.2579 39.8004 29.5479 39.6804 29.8179 39.5604C30.2579 39.3704 30.5979 39.2404 30.8779 39.1304C31.5246 38.8904 31.8479 38.3304 31.8479 37.4504C31.8479 36.1204 31.3279 35.6604 29.7679 35.6204C29.7279 35.6204 29.6779 35.6204 29.6579 35.6204C28.1879 35.6204 27.0979 36.4104 26.7479 36.6704L26.6979 36.7104C26.4879 36.8604 26.3279 36.9304 26.1779 36.9304C26.0679 36.9304 25.9679 36.8904 25.8779 36.8104C25.8079 36.7404 25.7779 36.6604 25.7879 36.5604C25.7879 36.3504 25.9779 36.0904 26.3279 35.8004C27.7479 34.6004 29.5279 34.4204 30.4679 34.4204C32.1279 34.4204 34.3179 34.6704 34.3179 36.8104V42.1704C34.3179 42.3904 34.3179 42.5904 34.3179 42.7704C34.3179 44.0904 34.3179 44.7604 34.6879 45.7204C34.8379 46.0404 35.0479 46.3404 35.4479 46.3404C35.7979 46.3404 35.9879 46.4404 36.0179 46.6504C36.0579 46.9604 35.7579 47.0204 35.5879 47.0504C35.3279 47.1004 35.0079 47.1304 34.7079 47.1304C34.3679 47.1304 34.0579 47.0904 33.8079 47.0204H33.7879C32.3479 46.6204 32.1779 46.0804 32.0679 45.7304C32.0579 45.7004 32.0479 45.6604 32.0379 45.6304C31.9779 45.4704 31.9379 45.4004 31.8679 45.4004C31.8279 45.4004 31.8179 45.4004 31.7979 45.4304C31.7979 45.4304 31.7979 45.4304 31.7979 45.4404L31.7779 45.4704C31.0179 46.5104 30.3579 47.2304 28.2179 47.2304M31.8579 39.8404L30.4479 40.5004C28.3279 41.4904 27.1679 42.0404 27.1679 43.5504C27.1679 44.7204 27.9479 45.3904 29.3179 45.3904C31.0779 45.3904 31.8579 43.9104 31.8579 42.4304V39.8304V39.8404Z" fill="#FBF8EE"/>
<path d="M82.1481 47.2304C79.8281 47.2304 78.3281 45.9604 78.3281 44.0004C78.3281 41.8104 80.8681 40.7604 82.9081 39.9204C83.2081 39.8004 83.4981 39.6804 83.7681 39.5604C84.2081 39.3704 84.5481 39.2404 84.8281 39.1304C85.4748 38.8904 85.7981 38.3304 85.7981 37.4504C85.7981 36.1204 85.2781 35.6604 83.7181 35.6204C83.6881 35.6204 83.6381 35.6204 83.6081 35.6204C82.1381 35.6204 81.0481 36.4104 80.6981 36.6704L80.6481 36.7104C80.4381 36.8604 80.2781 36.9304 80.1281 36.9304C80.0181 36.9304 79.9081 36.8904 79.8281 36.8104C79.7581 36.7404 79.7281 36.6604 79.7281 36.5604C79.7381 36.3504 79.9181 36.0904 80.2681 35.8004C81.6881 34.6004 83.4681 34.4204 84.4081 34.4204C86.0681 34.4204 88.2581 34.6704 88.2581 36.8104V42.1704C88.2581 42.3904 88.2581 42.5904 88.2581 42.7804C88.2581 44.1004 88.2581 44.5904 88.6281 45.5504C88.7781 45.8704 88.9881 46.1704 89.3881 46.1704C89.7381 46.1704 89.9281 46.2704 89.9581 46.4804C89.9981 46.7904 89.6981 46.8504 89.5281 46.8804C89.2681 46.9304 88.9481 46.9604 88.6481 46.9604C88.3081 46.9604 87.9981 46.9204 87.7481 46.8504H87.7281C86.2881 46.4504 86.1181 45.9104 86.0081 45.5604C85.9981 45.5304 85.9881 45.4904 85.9781 45.4604C85.9181 45.3004 85.8781 45.2304 85.8081 45.2304C85.7681 45.2304 85.7581 45.2304 85.7481 45.2604H85.7381L85.7181 45.3004C84.9581 46.3504 84.2981 47.2404 82.1581 47.2404M85.7981 39.8504L84.3881 40.5104C82.2681 41.5004 81.1081 42.0504 81.1081 43.5604C81.1081 44.7304 81.8981 45.4004 83.2581 45.4004C85.0181 45.4004 85.7981 43.9204 85.7981 42.4404V39.8404V39.8504Z" fill="#FBF8EE"/>
<path d="M55.4681 47.2303C53.1781 47.2303 51.7081 45.7103 51.7081 43.3603C51.7081 43.3603 51.7081 36.0003 51.7081 35.9003C51.7081 35.5603 51.5081 35.3903 51.1181 35.3903H50.8481C50.4781 35.3903 50.0581 35.3903 50.0581 35.0403C50.0581 34.6903 50.4381 34.6503 50.7681 34.6203H50.8781C51.3781 34.5603 51.8081 34.5203 52.4081 34.5203C53.2981 34.5203 54.1881 34.8903 54.1881 35.7003V41.8603C54.1881 43.7303 54.4881 45.4603 56.6981 45.4603C59.1481 45.4603 59.3581 43.1103 59.3581 40.9203V35.9003C59.3581 35.7803 59.3581 35.4003 58.7681 35.4003H58.6881C58.6081 35.4003 58.5381 35.4003 58.4681 35.4003C58.4081 35.4003 58.3481 35.4003 58.2981 35.4003C58.0781 35.4003 57.7081 35.4003 57.7081 35.0503C57.7081 34.7003 58.0681 34.6603 58.4181 34.6303H58.4981C59.0081 34.5703 59.4481 34.5303 60.0581 34.5303C60.9481 34.5303 61.8381 34.9003 61.8381 35.7103C61.8381 36.1203 61.8381 38.4303 61.8381 40.4503C61.8381 42.0403 61.8381 43.4503 61.8381 43.6403C61.8381 44.6103 61.9681 45.2103 62.1681 45.7303C62.3081 46.0203 62.5081 46.3203 62.9281 46.3403H62.9581C63.1581 46.3403 63.5381 46.3603 63.5381 46.6803C63.5381 46.7503 63.5081 46.9703 63.1181 47.0603C62.8781 47.1103 62.5681 47.1403 62.2581 47.1403C61.9981 47.1403 61.7681 47.1203 61.5481 47.0803C61.4581 47.0603 61.3781 47.0503 61.2981 47.0203H61.2481C60.7381 46.8603 60.3481 46.6903 60.0681 46.4703C59.6981 46.1803 59.6281 45.8703 59.5781 45.6903L59.5581 45.6303C59.5581 45.6303 59.5481 45.5803 59.5381 45.5503C59.5381 45.5303 59.5281 45.4903 59.5181 45.4603C59.4681 45.5103 59.3981 45.6003 59.3481 45.6703C59.2681 45.7703 59.1981 45.8803 59.1081 45.9603C58.8081 46.2703 57.3181 47.2203 55.4881 47.2203" fill="#FBF8EE"/>
<path d="M72.1579 34.3303C74.4479 34.3303 75.9279 35.8503 75.9279 38.2003C75.9279 38.2003 75.9279 45.7403 75.9279 45.8503C75.9279 46.1903 76.1279 46.3603 76.5179 46.3603H76.7879C77.1579 46.3603 77.5779 46.3603 77.5779 46.7103C77.5779 47.0603 77.1979 47.1003 76.8679 47.1303H76.7579C76.2579 47.1903 75.8279 47.2303 75.2279 47.2303C74.3379 47.2303 73.4479 46.8603 73.4479 46.0503V39.7103C73.4479 37.8403 73.1479 36.1103 70.9379 36.1103C68.4879 36.1103 68.2779 38.4603 68.2779 40.6503V45.8503C68.2779 45.9703 68.2779 46.3403 68.8679 46.3503H68.9479C69.0279 46.3503 69.0979 46.3503 69.1679 46.3503C69.2279 46.3503 69.2879 46.3503 69.3379 46.3503C69.5579 46.3503 69.9279 46.3503 69.9279 46.7003C69.9279 47.0503 69.5679 47.0903 69.2179 47.1203H69.1379C68.6279 47.1803 68.1879 47.2203 67.5779 47.2203C66.6879 47.2203 65.7979 46.8503 65.7979 46.0403C65.7979 45.6303 65.7979 43.1403 65.7979 41.1103C65.7979 39.5203 65.7979 38.1103 65.7979 37.9203C65.7979 36.9503 65.6679 36.5303 65.4679 36.0103C65.3279 35.7303 65.1279 35.4203 64.7079 35.4003H64.6879C64.4879 35.4003 64.1079 35.3703 64.1079 35.0603C64.1079 34.9903 64.1379 34.7703 64.5279 34.6803C64.7679 34.6303 65.0779 34.6003 65.3879 34.6003C65.6479 34.6003 65.8779 34.6203 66.0979 34.6603C66.1879 34.6803 66.2679 34.6903 66.3479 34.7203H66.3979C66.9179 34.8803 67.2979 35.0503 67.5879 35.2703C67.9579 35.5603 68.0379 35.8703 68.0779 36.0503L68.0979 36.1103C68.0979 36.1103 68.1079 36.1603 68.1179 36.1903C68.1179 36.2103 68.1279 36.2503 68.1379 36.2803C68.1879 36.2303 68.2579 36.1403 68.3079 36.0703C68.3879 35.9703 68.4679 35.8603 68.5479 35.7803C68.8479 35.4703 70.3379 34.3303 72.1679 34.3303" fill="#FBF8EE"/>
<path d="M44.218 47.3004C39.458 47.3004 36.938 45.1404 36.938 41.0504C36.938 38.9904 37.768 37.3304 39.338 35.8304C41.188 34.0604 43.868 34.5004 44.358 34.5704C44.788 34.6304 45.188 34.6804 45.548 34.6804C45.938 34.6804 46.238 34.6204 46.478 34.4804L46.738 34.3304C47.288 34.0204 47.568 33.8604 47.798 33.8604C47.918 33.8604 48.018 33.9004 48.108 33.9904C48.418 34.3004 48.038 34.7004 47.918 34.8304C47.898 34.8504 47.858 34.8904 47.818 34.9404C47.268 35.5504 46.678 36.1204 46.178 36.2104C44.898 36.4304 43.898 35.6504 42.948 35.6504C40.298 35.6504 39.568 38.7003 39.568 40.4604C39.568 42.9403 40.478 45.8904 44.838 45.8904C44.908 45.8904 44.988 45.8904 45.058 45.8904C45.058 45.8904 45.068 45.8904 45.078 45.8904C45.168 45.8804 45.328 45.8703 45.588 45.8503C45.638 45.8503 45.688 45.8403 45.748 45.8303C46.188 45.7503 46.228 45.4404 46.228 45.3804L46.208 41.3504C46.208 41.1204 46.118 41.0704 46.018 41.0403C46.018 41.0403 45.978 41.0403 45.928 41.0403C45.768 41.0403 45.478 41.0403 45.108 41.0504C44.648 41.0504 44.068 41.0704 43.438 41.0804C42.628 41.0804 42.318 41.0403 42.158 40.8703C42.078 40.7903 42.048 40.6704 42.058 40.5204C42.088 40.0904 42.578 40.0403 43.208 40.0303C43.348 40.0303 43.718 40.0204 44.188 40.0004C45.158 39.9704 46.498 39.9304 46.898 39.9304C47.748 39.9304 48.608 40.3004 48.608 41.1304V42.6604C48.598 42.8704 48.588 43.0403 48.588 43.1903V45.0604C48.588 46.3204 47.408 47.0603 45.078 47.2603H44.978C44.718 47.2803 44.468 47.2803 44.228 47.2803" fill="#FBF8EE"/>
<path d="M18.7081 47.2303C16.5181 47.2303 15.6981 46.5403 15.6981 44.6703V38.4503V32.0003V31.4003C15.6981 31.1903 15.6381 30.9103 15.0981 30.8903H14.9281C14.4081 30.8703 14.0381 30.8603 14.0381 30.5203C14.0381 30.1503 14.4381 30.1303 14.7881 30.1103H14.8181C15.0181 30.1003 15.1981 30.0803 15.3881 30.0703C15.6981 30.0403 16.0081 30.0203 16.3981 30.0203C17.2881 30.0203 18.1781 30.3903 18.1781 31.2003V44.5003C18.1781 45.0403 18.1781 45.5003 18.4381 45.7603C18.6181 45.9403 18.9381 46.0303 19.3981 46.0303C20.0881 46.0303 21.1881 45.8403 22.4581 44.9503H22.4781C22.8181 44.7003 23.1181 44.6703 23.2781 44.8303C23.3581 44.9103 23.3981 45.0103 23.3981 45.1103C23.3981 45.3103 23.2181 45.5403 22.8481 45.8503C21.4281 47.0503 19.6481 47.2303 18.7081 47.2303Z" fill="#FBF8EE"/>
<path d="M38.208 31.1004C38.138 31.0704 38.148 30.9704 38.248 30.7004C38.348 30.4204 39.008 29.2204 40.158 28.4104C41.508 27.4604 42.708 27.0304 43.608 26.3904C44.448 25.7904 44.808 25.2004 44.918 24.8604C44.938 24.7904 44.968 24.7104 44.998 24.7004C45.038 24.6904 45.058 24.7604 45.088 24.9004C45.138 25.2004 45.088 26.5104 44.038 27.7104C43.198 28.6704 41.938 29.2304 41.018 29.6704C40.158 30.0804 39.638 30.3304 38.938 30.7304C38.728 30.8504 38.328 31.1404 38.228 31.1004" fill="#FBF8EE"/>
<path d="M45.0481 26.6204C45.1081 26.8104 45.4981 28.3104 44.2681 29.8304C42.9481 31.4604 41.2581 31.6704 39.8581 32.2104C38.7081 32.6504 37.6481 33.1104 37.0781 34.1404C36.9981 34.2904 36.9881 34.5104 36.8181 34.5504C36.6081 34.6004 36.5981 34.3104 36.5881 34.1804C36.5781 34.0204 36.4781 32.6404 37.7381 31.4904C39.1281 30.2204 40.4081 29.8904 42.5081 28.7604C44.0481 27.9304 44.5781 26.8204 44.7081 26.6004C44.7481 26.5204 44.8581 26.3404 44.8881 26.2404C44.9281 26.1504 45.0081 26.4504 45.0581 26.6204" fill="#FBF8EE"/>
</svg>
