<svg width="11" height="18" viewBox="0 0 11 18" fill="none" xmlns="http://www.w3.org/2000/svg">
<path d="M7.50486 8.97352L4.84955 6.30141C3.61155 5.05465 2.37388 3.80751 1.13653 2.55998C0.750127 2.16936 0.642248 1.65488 0.820739 1.13866C0.992856 0.639727 1.39642 0.319969 1.8657 0.386801C2.09034 0.418827 2.30293 0.523768 2.47963 0.68985C4.91477 3.12076 7.3432 5.55973 9.76494 8.00677C10.3132 8.56043 10.3043 9.39929 9.75709 9.95237C7.31803 12.4079 4.8775 14.861 2.4355 17.3119C1.98142 17.7665 1.31895 17.7089 0.947252 17.1904C0.554962 16.6453 0.615277 15.9067 1.09191 15.4268C3.12854 13.3769 5.16567 11.3276 7.20329 9.27887C7.29744 9.18899 7.38717 9.09393 7.50486 8.97352Z" fill="#121113"/>
</svg>
