<svg width="68" height="68" viewBox="0 0 68 68" fill="none" xmlns="http://www.w3.org/2000/svg">
<circle cx="34" cy="34" r="34" fill="#121113"/>
<circle cx="34" cy="34" r="33.5" stroke="white" stroke-opacity="0.5"/>
<path d="M24.673 34.0576C25.2554 34.6026 25.9991 35.7317 26.5152 36.4092C27.3608 37.5188 28.1486 38.6716 28.9746 39.7948C29.158 39.9332 29.3982 39.8907 29.5952 39.8092C30.0001 39.642 31.4518 37.2547 31.8347 36.7123C34.2551 33.2842 36.6652 30.0226 39.4863 26.9095C40.5432 25.743 43.5196 22.3107 44.883 21.9703C46.3245 21.6104 47.1471 23.5655 46.9782 24.743C46.8313 25.7676 43.5578 28.7441 42.7055 29.7059C39.9642 32.802 37.0761 36.7912 34.7661 40.2371C33.6481 41.9053 32.6947 43.9368 31.5495 45.4937C29.9424 47.6789 28.4669 46.3113 27.0305 44.79C25.3895 43.0505 21.4665 37.9229 20.9317 35.7232C20.7407 34.9371 20.902 34.5203 21.5744 34.0771C22.6364 33.3767 23.6687 33.1187 24.673 34.0576Z" fill="#BFF143"/>
</svg>
